<svg width="331" height="219" viewBox="0 0 331 219" fill="none" xmlns="http://www.w3.org/2000/svg">
<path d="M76.2319 96.7446C90.5974 88.4145 104.968 80.0957 119.323 71.7374C120.12 71.2736 120.68 71.2114 121.483 71.7147C126.262 74.712 131.154 77.5226 135.639 80.9723C140.181 84.4615 142.46 88.997 142.533 94.72C142.59 99.1141 142.381 103.497 142.092 107.88C142.036 108.739 141.719 109.197 140.967 109.633C121.523 120.892 102.09 132.186 82.6625 143.473C77.7477 146.329 72.8385 149.196 67.9294 152.058C67.4204 151.99 66.9623 152.131 66.5211 152.392C61.4367 155.372 56.3466 158.346 51.2565 161.327C46.9751 163.832 42.6938 166.343 38.4124 168.837C33.475 171.71 28.532 174.571 23.5946 177.433C19.1153 174.82 14.6869 172.117 10.1454 169.617C4.88559 166.722 2.8552 162.209 2.84389 156.418C2.83258 151.362 2.62332 146.301 2.44234 141.245C2.4084 140.374 2.88348 139.928 3.43208 139.486C6.05066 137.383 8.88981 135.584 11.7346 133.814C18.38 129.68 25.1103 125.682 31.9254 121.831C32.3043 121.707 32.7172 121.644 33.0622 121.452C36.0088 119.784 38.9328 118.087 41.8737 116.408C48.57 112.585 55.289 108.801 61.9683 104.939C66.7134 102.191 71.6169 99.7192 76.2319 96.7446Z" fill="#3A3185"/>
<path d="M1.03408 103.627C0.677775 100.958 0.830479 98.2657 0.8022 95.5908C0.700398 85.7282 0.734332 75.8656 0.621219 66.0029C0.542039 58.7756 3.42078 53.1543 9.21219 48.8507C14.1609 45.1749 19.5677 42.2794 24.8728 39.2087C44.3339 27.9492 63.7951 16.7067 83.2789 5.49246C87.9448 2.80624 92.8992 0.900448 98.3852 0.855207C102.559 0.821275 106.428 1.99755 110.03 4.05604C120.329 9.93743 130.623 15.8358 140.916 21.7285C141.255 21.9208 141.572 22.1583 142.007 22.4467C137.087 25.2799 132.291 28.051 127.489 30.8107C100.172 46.5378 72.8499 62.2648 45.5329 77.9919C45.2615 78.1502 44.973 78.2803 44.6959 78.4217C44.0116 78.8232 43.3216 79.2304 42.6372 79.6376C41.393 80.2427 40.0582 80.7007 39.1251 81.8092H39.1307C38.2032 81.7583 37.6489 82.4425 36.9759 82.895C36.8911 82.9232 36.8006 82.9459 36.7157 82.9741C35.2622 83.8224 33.7013 84.4897 32.4005 85.5868L32.4061 85.5812C32.0385 85.6151 31.7444 85.7565 31.5917 86.1184H31.5974C30.1948 86.5821 28.9166 87.2608 27.825 88.273H27.8307C27.0332 88.3465 26.4394 88.765 25.9417 89.3532L25.9473 89.3475C24.5334 89.8282 23.2948 90.6143 22.1128 91.5021C21.7848 91.6379 21.4398 91.7453 21.1344 91.9206C17.379 94.0696 13.5953 96.1677 9.89087 98.4015C6.95558 100.166 3.85627 101.664 1.03408 103.627Z" fill="#3A3185"/>
<path d="M99.3863 170.449C107.033 166.049 114.691 161.66 122.331 157.249C146.266 143.434 170.201 129.612 194.136 115.791C195.561 114.971 195.572 114.971 195.567 116.69C195.55 128.351 195.544 140.012 195.51 151.673C195.505 154.235 195.216 156.774 194.611 159.263C193.593 163.459 191.048 166.62 187.734 169.25C184.634 171.71 181.235 173.712 177.819 175.68C155.864 188.364 133.909 201.043 111.948 213.705C110.166 214.734 108.305 215.628 106.467 216.555C100.851 219.377 95.2407 219.394 89.5341 216.708C84.5741 214.372 79.9138 211.528 75.2083 208.757C68.3762 204.73 61.5611 200.681 54.7404 196.643C54.8478 196.191 55.2777 196.1 55.6 195.886C56.9913 194.964 58.6032 194.398 59.8871 193.296C60.2321 193.205 60.5657 193.098 60.7015 192.713L60.6958 192.719C61.827 192.419 62.8054 191.842 63.6877 191.084C63.8517 191.022 64.0327 190.988 64.1797 190.903C67.0358 189.269 69.9033 187.64 72.7424 185.978C75.2818 184.49 77.9117 183.144 80.338 181.459C81.701 180.877 83.0018 180.181 84.1612 179.242C84.5571 179.186 84.8908 179.016 85.1792 178.739C85.8523 178.439 86.5083 178.111 87.0682 177.619L87.0569 177.625C87.6904 177.404 88.2955 177.139 88.6858 176.556L88.6801 176.562C89.8395 176.313 90.7557 175.606 91.6833 174.933C94.3018 173.536 96.9544 172.179 99.3863 170.449Z" fill="#3A3185"/>
<path d="M85.1736 178.75C84.8851 179.028 84.5515 179.197 84.1556 179.254C82.6964 179.678 81.1581 179.961 80.3323 181.471C77.906 183.156 75.2818 184.496 72.7368 185.989C69.8976 187.652 67.0302 189.28 64.1741 190.915C64.0214 191 63.846 191.039 63.6764 191.096C62.4943 191.305 61.3519 191.576 60.6845 192.73C60.6845 192.73 60.6902 192.724 60.6845 192.724C60.249 192.685 59.8588 192.713 59.8701 193.307C58.5863 194.41 56.9744 194.969 55.5831 195.897C55.2607 196.112 54.8309 196.197 54.7234 196.655C44.3396 190.247 33.9558 183.84 23.572 177.433C28.515 174.566 33.4581 171.71 38.3898 168.837C42.6768 166.343 46.9525 163.832 51.2339 161.327C56.324 158.352 61.4141 155.372 66.4985 152.392C66.9397 152.131 67.3921 151.99 67.9068 152.058C69.9881 153.602 72.2956 154.755 74.5296 156.045C82.555 160.671 90.5974 165.263 98.6284 169.877C98.8942 170.03 99.1205 170.262 99.3637 170.454C96.9317 172.185 94.2792 173.542 91.6606 174.944C90.3938 175.001 89.438 175.629 88.6575 176.573L88.6631 176.567C87.8204 176.466 87.1078 176.567 87.0343 177.636L87.0456 177.631C86.2651 177.715 85.1283 177.235 85.1736 178.75Z" fill="#39A788"/>
<path d="M42.6429 79.6376C43.3329 79.2305 44.0172 78.829 44.7015 78.4218C45.9119 79.7281 47.5633 80.3615 49.0508 81.2268C57.7266 86.2655 66.4363 91.2534 75.1404 96.2526C75.4854 96.4505 75.87 96.5806 76.2319 96.7389C71.6169 99.7136 66.7134 102.185 61.9683 104.928C55.289 108.784 48.57 112.573 41.8737 116.396C38.9327 118.076 36.0088 119.772 33.0622 121.441C32.7228 121.633 32.3043 121.695 31.9254 121.82C30.1891 120.315 28.0852 119.405 26.1283 118.268C18.0463 113.58 9.9361 108.948 1.83717 104.289C1.53742 104.119 1.17545 103.989 1.03406 103.621C3.85624 101.659 6.95555 100.16 9.89085 98.3902C13.5953 96.1564 17.379 94.0584 21.1343 91.9094C21.4397 91.7341 21.7847 91.6323 22.1128 91.4909C23.5719 91.095 25.082 90.7897 25.9473 89.3363L25.9417 89.3419C26.8579 89.4777 27.3556 88.8952 27.8307 88.2618H27.825C29.4538 88.1939 30.5001 87.1025 31.5973 86.1072H31.5917C32.0102 86.1468 32.4004 86.1524 32.4061 85.5699C32.4061 85.5699 32.4004 85.5756 32.4004 85.5813C33.9784 85.4173 35.1661 84.3824 36.5065 83.6981C36.6592 83.6189 36.6479 83.2174 36.7157 82.9686C36.8006 82.9403 36.8911 82.9176 36.9759 82.8894C37.9656 83.0703 38.6104 82.5614 39.1307 81.8036H39.125C40.3976 81.2437 41.9416 81.1193 42.6429 79.6376Z" fill="#39A788"/>
<path d="M194.339 83.9016C194.634 88.0016 193.825 90.9254 191.382 93.1761C186.416 97.7455 178.747 95.2459 177.197 88.6011C176.869 87.193 176.818 85.7622 176.756 84.3314C176.547 79.2305 176.343 74.1238 176.196 69.0172C176.173 68.1633 175.891 67.6373 175.195 67.151C169.669 63.2602 164.155 59.3468 158.658 55.4108C152.617 51.079 153.398 41.4821 160.009 38.4849C162.99 37.1333 165.795 37.6083 168.386 39.4519C175.466 44.4794 182.542 49.5181 189.589 54.5965C192.241 56.5079 193.429 59.245 193.553 62.4572C193.836 69.8938 194.096 77.3247 194.339 83.9016Z" fill="#3AA788"/>
<path d="M36.7157 82.9686C36.6479 83.2174 36.6592 83.6189 36.5065 83.6981C35.1661 84.388 33.9784 85.4173 32.4004 85.5813C33.7069 84.4898 35.2622 83.8168 36.7157 82.9686Z" fill="#5895A3"/>
<path d="M31.603 86.1128C30.5058 87.1138 29.4595 88.1996 27.8307 88.2674C28.9165 87.2552 30.2004 86.5765 31.603 86.1128Z" fill="#5A94A6"/>
<path d="M25.9473 89.3475C25.082 90.8009 23.5776 91.1063 22.1128 91.5021C23.2948 90.6086 24.5334 89.8225 25.9473 89.3475Z" fill="#5897A3"/>
<path d="M42.6429 79.6376C41.9416 81.125 40.4032 81.2493 39.1307 81.8092C40.0639 80.7007 41.393 80.2371 42.6429 79.6376Z" fill="#5B94A3"/>
<path d="M39.1363 81.8092C38.616 82.567 37.9713 83.076 36.9815 82.8951C37.6546 82.4426 38.2088 81.7583 39.1363 81.8092Z" fill="#5B94A3"/>
<path d="M27.8307 88.2674C27.3556 88.9008 26.8579 89.4833 25.9417 89.3476C26.445 88.7595 27.0389 88.341 27.8307 88.2674Z" fill="#5A94A6"/>
<path d="M32.4061 85.5756C32.4005 86.1581 32.0102 86.1524 31.5917 86.1128C31.7444 85.7509 32.0441 85.6095 32.4061 85.5756Z" fill="#5A94A6"/>
<path d="M84.1556 179.254C82.6964 179.678 81.1581 179.961 80.3323 181.471C81.701 180.888 82.9961 180.192 84.1556 179.254Z" fill="#5C95A6"/>
<path d="M60.6958 192.724C61.3575 191.571 62.5056 191.299 63.6877 191.09C62.8054 191.848 61.827 192.43 60.6958 192.724Z" fill="#569AA2"/>
<path d="M88.6745 176.573C89.4606 175.629 90.4108 175.001 91.6776 174.944C90.7501 175.617 89.8395 176.324 88.6745 176.573Z" fill="#5B97A7"/>
<path d="M85.1736 178.75C85.1283 177.235 86.2595 177.715 87.0626 177.631C86.5027 178.123 85.8466 178.451 85.1736 178.75Z" fill="#5B97A7"/>
<path d="M87.0569 177.636C87.1304 176.567 87.8374 176.46 88.6858 176.567C88.2899 177.156 87.6847 177.416 87.0569 177.636Z" fill="#5B97A7"/>
<path d="M59.8814 193.307C59.8701 192.713 60.2603 192.69 60.6958 192.724C60.5601 193.103 60.232 193.216 59.8814 193.307Z" fill="#569AA2"/>
<path d="M206.904 118.8C205.168 118.8 203.636 118.341 202.308 117.422C201.031 116.502 200.036 115.2 199.321 113.515C198.606 111.83 198.248 109.838 198.248 107.54C198.248 105.191 198.606 102.663 199.321 99.9565C200.036 97.2499 201.108 94.5944 202.538 91.99C203.968 89.3856 205.704 87.0109 207.747 84.8661C209.841 82.7213 212.215 81.0105 214.871 79.7338C217.526 78.4061 220.488 77.7422 223.756 77.7422C225.237 77.7422 226.82 77.9465 228.506 78.355C230.191 78.7636 231.825 79.3509 233.408 80.1169L246.047 42.1994C246.354 41.178 246.737 40.5142 247.196 40.2078C247.707 39.9014 248.473 39.7481 249.494 39.7481C251.077 39.7481 252.073 40.0035 252.482 40.5142C252.941 40.9738 252.992 41.7142 252.635 42.7356L231.57 106.085C230.753 108.74 230.421 110.578 230.574 111.6C230.727 112.57 231.595 113.055 233.178 113.055C233.638 113.055 233.97 113.362 234.174 113.974C234.43 114.536 234.506 115.2 234.404 115.966C234.353 116.681 234.123 117.319 233.715 117.881C233.306 118.494 232.693 118.8 231.876 118.8C229.374 118.8 227.51 118.366 226.284 117.498C225.059 116.681 224.267 115.634 223.91 114.357C223.603 113.03 223.552 111.651 223.756 110.221C224.012 108.74 224.344 107.387 224.752 106.161L224.905 105.625C222.761 108.587 220.616 111.038 218.471 112.979C216.377 114.919 214.36 116.375 212.419 117.345C210.479 118.315 208.641 118.8 206.904 118.8ZM209.049 112.672C210.836 112.672 212.854 111.779 215.101 109.991C217.399 108.153 219.85 105.472 222.454 101.948C225.11 98.4245 227.765 94.1604 230.421 89.1558L231.646 85.5555C229.859 84.8406 228.225 84.381 226.744 84.1767C225.263 83.9214 223.91 83.7937 222.684 83.7937C220.488 83.7937 218.471 84.3044 216.633 85.3257C214.794 86.3471 213.16 87.7004 211.73 89.3856C210.351 91.0197 209.177 92.8581 208.206 94.9008C207.236 96.8925 206.496 98.8841 205.985 100.876C205.474 102.867 205.219 104.68 205.219 106.314C205.219 107.591 205.372 108.715 205.679 109.685C205.985 110.655 206.419 111.396 206.981 111.906C207.594 112.417 208.283 112.672 209.049 112.672Z" fill="url(#paint0_linear_440_1570)"/>
<path d="M231.847 118.8C231.132 118.8 230.596 118.494 230.239 117.881C229.881 117.319 229.754 116.681 229.856 115.966C229.907 115.2 230.213 114.536 230.775 113.974C231.337 113.362 232.154 113.055 233.226 113.055C234.554 113.055 235.958 112.57 237.439 111.6C238.92 110.63 240.452 109.276 242.035 107.54C243.567 105.804 245.15 103.761 246.785 101.412C248.419 99.0628 250.078 96.5095 251.764 93.7518C252.172 93.088 252.734 92.8071 253.449 92.9092C254.164 93.0113 254.751 93.3433 255.211 93.905C255.67 94.4157 255.696 95.003 255.287 95.6668C253.091 99.4969 250.998 102.867 249.006 105.778C247.065 108.689 245.176 111.115 243.338 113.055C241.448 114.945 239.584 116.375 237.746 117.345C235.856 118.315 233.89 118.8 231.847 118.8Z" fill="url(#paint1_linear_440_1570)"/>
<path d="M252.606 157.254C249.9 157.254 247.678 156.488 245.942 154.956C244.257 153.475 243.414 151.534 243.414 149.134C243.414 147.347 243.772 145.56 244.487 143.772C245.15 142.036 246.146 140.274 247.474 138.487C248.802 136.699 250.461 134.861 252.453 132.972C254.496 131.133 256.845 129.193 259.5 127.15C260.828 126.18 262.079 125.26 263.254 124.392C264.479 123.524 265.705 122.656 266.931 121.788C268.156 120.971 269.433 120.128 270.761 119.26L275.357 105.012C273.161 108.127 270.965 110.706 268.769 112.749C266.624 114.792 264.556 116.324 262.564 117.345C260.573 118.315 258.683 118.8 256.896 118.8C255.16 118.8 253.653 118.341 252.376 117.422C251.1 116.502 250.104 115.2 249.389 113.515C248.674 111.83 248.317 109.838 248.317 107.54C248.317 105.191 248.674 102.663 249.389 99.9565C250.104 97.2499 251.176 94.5944 252.606 91.99C254.036 89.3856 255.772 87.0109 257.815 84.8661C259.858 82.7213 262.207 81.0105 264.862 79.7338C267.569 78.4061 270.531 77.7422 273.748 77.7422C274.769 77.7422 275.816 77.8444 276.889 78.0486C277.961 78.2018 279.059 78.4572 280.183 78.8146C281.306 79.1721 282.379 79.6062 283.4 80.1169L283.63 79.6572C283.885 79.0444 284.268 78.6359 284.779 78.4316C285.289 78.1763 285.953 78.0486 286.77 78.0486C288.353 78.0486 289.349 78.304 289.758 78.8146C290.217 79.2742 290.268 80.0147 289.911 81.0361L271.757 136.648C270.531 140.325 269.28 143.466 268.003 146.07C266.726 148.675 265.348 150.794 263.867 152.428C262.386 154.113 260.7 155.339 258.811 156.105C256.973 156.871 254.904 157.254 252.606 157.254ZM253.755 151.356C255.287 151.356 256.717 150.845 258.045 149.824C259.373 148.802 260.624 147.168 261.798 144.921C263.024 142.725 264.173 139.866 265.245 136.342L268.08 127.686C267.365 128.146 266.65 128.631 265.935 129.141C265.22 129.652 264.505 130.163 263.79 130.673C263.075 131.184 262.36 131.72 261.645 132.282C259.602 133.916 257.841 135.474 256.36 136.955C254.93 138.436 253.755 139.815 252.836 141.091C251.968 142.368 251.304 143.568 250.844 144.691C250.436 145.866 250.232 146.989 250.232 148.062C250.232 148.675 250.359 149.236 250.615 149.747C250.87 150.258 251.253 150.641 251.764 150.896C252.325 151.203 252.989 151.356 253.755 151.356ZM259.117 112.672C260.905 112.672 262.947 111.753 265.245 109.915C267.595 108.025 270.071 105.293 272.676 101.718C275.331 98.1436 278.012 93.7518 280.719 88.543L281.715 85.4789C279.978 84.764 278.344 84.3044 276.812 84.1001C275.331 83.8958 273.952 83.7937 272.676 83.7937C270.48 83.7937 268.463 84.3044 266.624 85.3257C264.837 86.3471 263.228 87.7004 261.798 89.3856C260.42 91.0197 259.245 92.8581 258.275 94.9008C257.304 96.8925 256.564 98.8841 256.053 100.876C255.543 102.867 255.287 104.68 255.287 106.314C255.287 107.591 255.441 108.715 255.747 109.685C256.053 110.655 256.487 111.396 257.049 111.906C257.662 112.417 258.351 112.672 259.117 112.672Z" fill="url(#paint2_linear_440_1570)"/>
<path d="M299.621 107.923C296.71 109.659 293.749 111.447 290.736 113.285C287.723 115.123 284.761 116.962 281.85 118.8C278.939 120.639 276.207 122.426 273.654 124.162C273.347 124.418 273.066 124.316 272.811 123.856C272.556 123.447 272.377 122.835 272.275 122.018C272.173 121.252 272.224 120.486 272.428 119.72C272.632 118.954 273.041 118.366 273.654 117.958C276.207 116.119 278.888 114.306 281.697 112.519C284.505 110.732 287.365 108.97 290.276 107.234C293.187 105.497 296.072 103.787 298.932 102.101C299.289 101.846 299.596 101.948 299.851 102.408C300.157 102.867 300.362 103.48 300.464 104.246C300.566 105.012 300.54 105.753 300.387 106.468C300.285 107.183 300.03 107.668 299.621 107.923Z" fill="url(#paint3_linear_440_1570)"/>
<path d="M311.188 118.8C309.299 118.8 307.588 118.494 306.056 117.881C304.524 117.319 303.171 116.528 301.996 115.507C300.872 114.485 299.928 113.285 299.162 111.906C298.447 110.476 297.885 108.944 297.476 107.31C297.119 105.676 296.94 103.991 296.94 102.255C296.94 99.6501 297.298 96.918 298.013 94.0582C298.728 91.1985 299.8 88.543 301.23 86.0917C302.711 83.6405 304.6 81.6489 306.898 80.1169C309.196 78.5338 311.929 77.7422 315.095 77.7422C316.729 77.7422 318.159 78.0997 319.384 78.8146C320.661 79.4785 321.657 80.3977 322.372 81.5723C323.087 82.7468 323.444 84.1001 323.444 85.6321C323.444 87.8791 322.678 90.075 321.146 92.2198C319.665 94.3136 317.725 96.3307 315.324 98.2713C312.975 100.212 310.448 101.999 307.741 103.633C305.085 105.268 302.583 106.697 300.234 107.923L298.242 102.867C299.877 101.948 301.715 100.85 303.758 99.5735C305.851 98.2968 307.869 96.918 309.809 95.437C311.75 93.9561 313.358 92.4751 314.635 90.9942C315.912 89.5132 316.55 88.1344 316.55 86.8577C316.55 86.0917 316.32 85.4023 315.861 84.7895C315.452 84.1767 314.712 83.8703 313.639 83.8703C312.005 83.8703 310.575 84.4831 309.35 85.7087C308.124 86.9343 307.077 88.4919 306.209 90.3814C305.392 92.2198 304.754 94.1604 304.294 96.203C303.885 98.1947 303.681 99.982 303.681 101.565C303.681 103.097 303.834 104.527 304.141 105.855C304.447 107.183 304.932 108.357 305.596 109.378C306.311 110.4 307.256 111.217 308.43 111.83C309.605 112.391 311.035 112.672 312.72 112.672C314.201 112.672 315.656 112.34 317.086 111.676C318.567 110.961 319.997 110.042 321.376 108.919C322.806 107.744 324.134 106.493 325.359 105.165C325.972 104.45 326.687 104.195 327.504 104.399C328.321 104.604 328.985 104.987 329.496 105.548C330.006 106.11 330.287 106.697 330.338 107.31C330.44 107.923 330.185 108.612 329.572 109.378C327.632 111.83 325.64 113.745 323.597 115.123C321.555 116.451 319.486 117.396 317.393 117.958C315.35 118.519 313.282 118.8 311.188 118.8Z" fill="url(#paint4_linear_440_1570)"/>
<defs>
<linearGradient id="paint0_linear_440_1570" x1="244.282" y1="7.81949" x2="281.537" y2="155.198" gradientUnits="userSpaceOnUse">
<stop offset="0.370921" stop-color="#3A3185"/>
<stop offset="0.865145" stop-color="#39A788"/>
</linearGradient>
<linearGradient id="paint1_linear_440_1570" x1="244.282" y1="7.81949" x2="281.537" y2="155.198" gradientUnits="userSpaceOnUse">
<stop offset="0.370921" stop-color="#3A3185"/>
<stop offset="0.865145" stop-color="#39A788"/>
</linearGradient>
<linearGradient id="paint2_linear_440_1570" x1="244.282" y1="7.81949" x2="281.537" y2="155.198" gradientUnits="userSpaceOnUse">
<stop offset="0.370921" stop-color="#3A3185"/>
<stop offset="0.865145" stop-color="#39A788"/>
</linearGradient>
<linearGradient id="paint3_linear_440_1570" x1="244.282" y1="7.81949" x2="281.537" y2="155.198" gradientUnits="userSpaceOnUse">
<stop offset="0.370921" stop-color="#3A3185"/>
<stop offset="0.865145" stop-color="#39A788"/>
</linearGradient>
<linearGradient id="paint4_linear_440_1570" x1="244.282" y1="7.81949" x2="281.537" y2="155.198" gradientUnits="userSpaceOnUse">
<stop offset="0.370921" stop-color="#3A3185"/>
<stop offset="0.865145" stop-color="#39A788"/>
</linearGradient>
</defs>
</svg>
