<svg width="169" height="112" viewBox="0 0 169 112" fill="none" xmlns="http://www.w3.org/2000/svg">
<path d="M38.8444 49.6574C46.1581 45.4164 53.4746 41.1812 60.7825 36.9258C61.1885 36.6897 61.4736 36.658 61.8825 36.9143C64.3156 38.4402 66.8062 39.8712 69.0896 41.6274C71.4018 43.4039 72.5622 45.713 72.5996 48.6267C72.6284 50.8638 72.5219 53.0951 72.375 55.3264C72.3462 55.7641 72.185 55.9973 71.802 56.219C61.9026 61.9514 52.009 67.701 42.1183 73.4478C39.6161 74.9018 37.1167 76.3615 34.6174 77.8183C34.3583 77.7838 34.125 77.8558 33.9005 77.9882C31.3119 79.5055 28.7204 81.02 26.129 82.5373C23.9492 83.8127 21.7695 85.0911 19.5898 86.3608C17.0761 87.8234 14.5595 89.2802 12.0458 90.7371C9.76532 89.4069 7.51075 88.0307 5.19859 86.7581C2.52075 85.284 1.48704 82.9864 1.48129 80.0382C1.47553 77.4642 1.36899 74.8874 1.27685 72.3134C1.25957 71.87 1.50144 71.6426 1.78074 71.418C3.11391 70.3469 4.55936 69.4314 6.0077 68.5302C9.391 66.4256 12.8175 64.39 16.2872 62.4293C16.4801 62.3659 16.6903 62.3343 16.8659 62.2364C18.3661 61.387 19.8547 60.5233 21.352 59.6682C24.7612 57.7219 28.182 55.7957 31.5825 53.8293C33.9984 52.43 36.4948 51.1718 38.8444 49.6574Z" fill="#3A3185"/>
<path d="M0.559883 53.1613C0.37848 51.8023 0.456224 50.4318 0.441827 49.07C0.389998 44.0488 0.407274 39.0275 0.349686 34.0063C0.309375 30.3267 1.77499 27.4649 4.72349 25.2738C7.24297 23.4024 9.99568 21.9283 12.6966 20.3649C22.6046 14.6325 32.5126 8.90875 42.4321 3.1994C44.8076 1.8318 47.33 0.861532 50.123 0.838498C52.248 0.821224 54.2175 1.42009 56.0517 2.4681C61.2951 5.46241 66.5356 8.46536 71.7761 11.4654C71.9489 11.5633 72.1101 11.6843 72.3318 11.8311C69.8267 13.2735 67.385 14.6843 64.9404 16.0894C51.0329 24.0963 37.1225 32.1032 23.215 40.1101C23.0768 40.1907 22.9299 40.2569 22.7888 40.3289C22.4404 40.5333 22.0892 40.7406 21.7407 40.9479C21.1073 41.256 20.4277 41.4892 19.9526 42.0535H19.9555C19.4833 42.0276 19.2011 42.376 18.8585 42.6063C18.8153 42.6207 18.7692 42.6322 18.726 42.6466C17.986 43.0785 17.1913 43.4182 16.529 43.9768L16.5319 43.9739C16.3448 43.9912 16.195 44.0632 16.1173 44.2474H16.1202C15.4061 44.4835 14.7553 44.829 14.1996 45.3444H14.2025C13.7965 45.3818 13.4941 45.5949 13.2408 45.8943L13.2436 45.8914C12.5238 46.1362 11.8932 46.5364 11.2914 46.9884C11.1244 47.0575 10.9488 47.1122 10.7933 47.2014C8.88135 48.2955 6.95503 49.3637 5.06902 50.5009C3.57461 51.3992 1.9967 52.1622 0.559883 53.1613Z" fill="#3A3185"/>
<path d="M50.6327 87.1813C54.5256 84.9414 58.4243 82.7071 62.3144 80.4614C74.5 73.4276 86.6856 66.391 98.8713 59.3544C99.5969 58.9369 99.6026 58.9369 99.5997 59.8121C99.5911 65.7489 99.5882 71.6858 99.5709 77.6226C99.5681 78.9268 99.4212 80.2196 99.1131 81.4864C98.5948 83.6227 97.2991 85.2321 95.6118 86.5709C94.0339 87.8234 92.3033 88.8426 90.5642 89.8446C79.3863 96.3025 68.2085 102.758 57.0278 109.204C56.1208 109.728 55.1735 110.183 54.2377 110.655C51.3784 112.092 48.5221 112.1 45.6167 110.733C43.0915 109.544 40.7189 108.095 38.3232 106.685C34.8449 104.635 31.3752 102.573 27.9027 100.518C27.9574 100.287 28.1762 100.241 28.3403 100.132C29.0487 99.6624 29.8693 99.3745 30.5229 98.8131C30.6986 98.767 30.8684 98.7123 30.9376 98.5165L30.9347 98.5194C31.5106 98.3668 32.0087 98.0732 32.4579 97.6873C32.5414 97.6557 32.6335 97.6384 32.7084 97.5952C34.1625 96.7631 35.6223 95.9339 37.0678 95.0875C38.3606 94.3303 39.6996 93.645 40.9348 92.787C41.6288 92.4905 42.291 92.1363 42.8813 91.6584C43.0829 91.6296 43.2527 91.5432 43.3996 91.4022C43.7422 91.2496 44.0763 91.0826 44.3613 90.8321L44.3556 90.835C44.6781 90.7227 44.9862 90.5874 45.1848 90.2908L45.1819 90.2937C45.7722 90.167 46.2387 89.8071 46.7109 89.4645C48.0441 88.7533 49.3945 88.0624 50.6327 87.1813Z" fill="#3A3185"/>
<path d="M43.3967 91.4079C43.2499 91.549 43.08 91.6354 42.8784 91.6642C42.1355 91.8801 41.3523 92.0241 40.932 92.7928C39.6967 93.6508 38.3607 94.3332 37.0649 95.0932C35.6195 95.9397 34.1596 96.7689 32.7055 97.601C32.6278 97.6442 32.5385 97.6643 32.4521 97.6931C31.8503 97.7996 31.2687 97.9378 30.9289 98.5252C30.9289 98.5252 30.9318 98.5223 30.9289 98.5223C30.7072 98.5022 30.5085 98.5166 30.5143 98.8189C29.8607 99.3803 29.04 99.6653 28.3317 100.138C28.1676 100.247 27.9487 100.29 27.894 100.523C22.6075 97.2612 17.3209 93.9992 12.0343 90.7371C14.5509 89.2774 17.0675 87.8234 19.5783 86.3608C21.7609 85.0911 23.9377 83.8127 26.1174 82.5373C28.7089 81.0228 31.3004 79.5055 33.8889 77.9882C34.1135 77.8558 34.3439 77.7838 34.6059 77.8184C35.6655 78.6044 36.8403 79.1917 37.9777 79.8482C42.0636 82.2033 46.1581 84.5412 50.2468 86.8905C50.3821 86.9683 50.4973 87.0863 50.6211 87.1842C49.383 88.0652 48.0326 88.7562 46.6994 89.4703C46.0544 89.4991 45.5678 89.8186 45.1704 90.2995L45.1733 90.2966C44.7443 90.2448 44.3815 90.2966 44.344 90.8407L44.3498 90.8379C43.9524 90.8811 43.3737 90.6363 43.3967 91.4079Z" fill="#39A788"/>
<path d="M21.7436 40.948C22.0949 40.7407 22.4433 40.5363 22.7917 40.329C23.4079 40.994 24.2487 41.3165 25.006 41.757C29.423 44.3223 33.8573 46.8617 38.2887 49.4069C38.4643 49.5077 38.6601 49.5739 38.8444 49.6545C36.4948 51.1689 33.9983 52.4271 31.5825 53.8235C28.182 55.7871 24.7612 57.7161 21.352 59.6624C19.8547 60.5175 18.3661 61.3813 16.8659 62.2306C16.6932 62.3285 16.4801 62.3602 16.2872 62.4235C15.4032 61.6577 14.332 61.1941 13.3358 60.6154C9.22111 58.2286 5.09205 55.8706 0.968747 53.4982C0.816138 53.4118 0.631857 53.3456 0.559872 53.1584C1.99669 52.1594 3.5746 51.3964 5.06901 50.4952C6.95502 49.358 8.88134 48.2898 10.7933 47.1957C10.9487 47.1065 11.1244 47.0546 11.2914 46.9827C12.0343 46.7811 12.8031 46.6257 13.2436 45.8857L13.2408 45.8886C13.7072 45.9577 13.9606 45.6611 14.2025 45.3387H14.1996C15.0289 45.3041 15.5615 44.7484 16.1202 44.2417H16.1173C16.3303 44.2619 16.529 44.2647 16.5319 43.9682C16.5319 43.9682 16.529 43.9711 16.529 43.974C17.3324 43.8905 17.9371 43.3636 18.6195 43.0152C18.6972 42.9749 18.6915 42.7705 18.726 42.6438C18.7692 42.6294 18.8153 42.6179 18.8585 42.6035C19.3624 42.6956 19.6906 42.4365 19.9555 42.0507H19.9526C20.6005 41.7656 21.3866 41.7023 21.7436 40.948Z" fill="#39A788"/>
<path d="M98.9749 43.1188C99.1246 45.2062 98.7129 46.6947 97.469 47.8406C94.9408 50.167 91.0364 48.8944 90.2474 45.5114C90.0804 44.7945 90.0545 44.0661 90.0228 43.3377C89.9163 40.7407 89.8126 38.1408 89.7378 35.5409C89.7262 35.1062 89.5823 34.8384 89.2281 34.5908C86.415 32.6099 83.6075 30.6176 80.8088 28.6137C77.7336 26.4083 78.1309 21.5223 81.4969 19.9964C83.0144 19.3083 84.4426 19.5501 85.7613 20.4887C89.3663 23.0483 92.9685 25.6136 96.5562 28.1991C97.9066 29.1722 98.5113 30.5658 98.5747 32.2011C98.7186 35.9872 98.8511 39.7704 98.9749 43.1188Z" fill="#3AA788"/>
<path d="M18.726 42.6438C18.6915 42.7705 18.6972 42.9749 18.6195 43.0152C17.9371 43.3665 17.3324 43.8905 16.529 43.974C17.1942 43.4183 17.986 43.0757 18.726 42.6438Z" fill="#5895A3"/>
<path d="M16.123 44.2446C15.5644 44.7542 15.0317 45.307 14.2025 45.3415C14.7553 44.8262 15.4089 44.4807 16.123 44.2446Z" fill="#5A94A6"/>
<path d="M13.2436 45.8914C12.8031 46.6314 12.0372 46.7868 11.2914 46.9884C11.8932 46.5335 12.5238 46.1333 13.2436 45.8914Z" fill="#5897A3"/>
<path d="M21.7436 40.948C21.3866 41.7052 20.6034 41.7685 19.9555 42.0535C20.4306 41.4892 21.1073 41.2532 21.7436 40.948Z" fill="#5B94A3"/>
<path d="M19.9584 42.0536C19.6935 42.4394 19.3652 42.6985 18.8613 42.6064C19.204 42.376 19.4862 42.0276 19.9584 42.0536Z" fill="#5B94A3"/>
<path d="M14.2025 45.3415C13.9606 45.664 13.7072 45.9606 13.2407 45.8915C13.497 45.592 13.7994 45.379 14.2025 45.3415Z" fill="#5A94A6"/>
<path d="M16.5319 43.9711C16.529 44.2676 16.3304 44.2647 16.1173 44.2446C16.195 44.0603 16.3476 43.9884 16.5319 43.9711Z" fill="#5A94A6"/>
<path d="M42.8784 91.6642C42.1355 91.8801 41.3523 92.0241 40.932 92.7928C41.6288 92.4963 42.2882 92.1421 42.8784 91.6642Z" fill="#5C95A6"/>
<path d="M30.9347 98.5223C31.2716 97.935 31.8561 97.7968 32.4579 97.6902C32.0087 98.076 31.5106 98.3726 30.9347 98.5223Z" fill="#569AA2"/>
<path d="M45.1791 90.2995C45.5793 89.8186 46.0631 89.4991 46.708 89.4703C46.2358 89.8129 45.7722 90.1728 45.1791 90.2995Z" fill="#5B97A7"/>
<path d="M43.3967 91.4079C43.3737 90.6363 43.9496 90.881 44.3584 90.8378C44.0734 91.0883 43.7394 91.2553 43.3967 91.4079Z" fill="#5B97A7"/>
<path d="M44.3556 90.8407C44.393 90.2966 44.7529 90.2419 45.1848 90.2966C44.9833 90.596 44.6752 90.7285 44.3556 90.8407Z" fill="#5B97A7"/>
<path d="M30.52 98.8189C30.5143 98.5165 30.713 98.505 30.9347 98.5223C30.8656 98.7152 30.6986 98.7728 30.52 98.8189Z" fill="#569AA2"/>
<path d="M105.372 60.8864C104.488 60.8864 103.708 60.6524 103.032 60.1844C102.382 59.7164 101.875 59.0534 101.511 58.1954C101.147 57.3375 100.965 56.3235 100.965 55.1535C100.965 53.9576 101.147 52.6706 101.511 51.2926C101.875 49.9147 102.421 48.5627 103.149 47.2368C103.877 45.9108 104.761 44.7018 105.801 43.6099C106.867 42.5179 108.076 41.6469 109.428 40.9969C110.78 40.321 112.288 39.983 113.952 39.983C114.706 39.983 115.512 40.087 116.37 40.295C117.227 40.503 118.059 40.802 118.865 41.1919L125.3 21.8875C125.456 21.3675 125.651 21.0295 125.885 20.8735C126.145 20.7176 126.535 20.6396 127.055 20.6396C127.861 20.6396 128.368 20.7695 128.576 21.0295C128.81 21.2635 128.836 21.6405 128.654 22.1605L117.929 54.4125C117.513 55.7645 117.344 56.7005 117.422 57.2205C117.5 57.7144 117.942 57.9614 118.748 57.9614C118.982 57.9614 119.151 58.1174 119.255 58.4294C119.385 58.7154 119.424 59.0534 119.372 59.4434C119.346 59.8074 119.229 60.1324 119.021 60.4184C118.813 60.7304 118.501 60.8864 118.085 60.8864C116.812 60.8864 115.863 60.6654 115.239 60.2234C114.615 59.8074 114.212 59.2744 114.03 58.6244C113.874 57.9484 113.848 57.2465 113.952 56.5185C114.082 55.7645 114.251 55.0755 114.459 54.4515L114.537 54.1786C113.445 55.6865 112.353 56.9345 111.261 57.9224C110.195 58.9104 109.168 59.6514 108.18 60.1454C107.192 60.6394 106.256 60.8864 105.372 60.8864ZM106.464 57.7664C107.374 57.7664 108.401 57.3115 109.545 56.4015C110.715 55.4655 111.963 54.1006 113.289 52.3066C114.641 50.5127 115.993 48.3417 117.344 45.7938L117.968 43.9609C117.058 43.5969 116.227 43.3629 115.473 43.2589C114.719 43.1289 114.03 43.0639 113.406 43.0639C112.288 43.0639 111.261 43.3239 110.325 43.8439C109.389 44.3638 108.557 45.0528 107.829 45.9108C107.127 46.7428 106.529 47.6787 106.035 48.7187C105.541 49.7327 105.164 50.7467 104.904 51.7606C104.644 52.7746 104.514 53.6976 104.514 54.5295C104.514 55.1795 104.592 55.7515 104.748 56.2455C104.904 56.7395 105.125 57.1165 105.411 57.3765C105.723 57.6364 106.074 57.7664 106.464 57.7664Z" fill="url(#paint0_linear_59_564)"/>
<path d="M118.071 60.8864C117.707 60.8864 117.434 60.7304 117.252 60.4184C117.07 60.1324 117.005 59.8074 117.057 59.4434C117.083 59.0534 117.239 58.7154 117.525 58.4294C117.811 58.1174 118.227 57.9614 118.773 57.9614C119.449 57.9614 120.164 57.7144 120.918 57.2205C121.672 56.7265 122.452 56.0375 123.258 55.1535C124.038 54.2695 124.844 53.2296 125.676 52.0336C126.508 50.8377 127.353 49.5377 128.211 48.1337C128.419 47.7957 128.705 47.6527 129.069 47.7047C129.432 47.7567 129.731 47.9257 129.965 48.2117C130.199 48.4717 130.212 48.7707 130.004 49.1087C128.887 51.0586 127.821 52.7746 126.807 54.2565C125.819 55.7385 124.857 56.9735 123.921 57.9614C122.959 58.9234 122.01 59.6514 121.074 60.1454C120.112 60.6394 119.111 60.8864 118.071 60.8864Z" fill="url(#paint1_linear_59_564)"/>
<path d="M128.64 80.4638C127.262 80.4638 126.131 80.0738 125.247 79.2938C124.389 78.5398 123.96 77.5518 123.96 76.3299C123.96 75.4199 124.142 74.5099 124.506 73.6C124.844 72.716 125.351 71.819 126.027 70.909C126.703 69.9991 127.548 69.0631 128.562 68.1011C129.601 67.1652 130.797 66.1772 132.149 65.1372C132.825 64.6432 133.462 64.1753 134.06 63.7333C134.684 63.2913 135.308 62.8493 135.932 62.4073C136.556 61.9913 137.206 61.5623 137.882 61.1203L140.222 53.8666C139.104 55.4525 137.986 56.7655 136.868 57.8054C135.776 58.8454 134.723 59.6254 133.709 60.1454C132.695 60.6394 131.733 60.8864 130.823 60.8864C129.939 60.8864 129.173 60.6524 128.523 60.1844C127.873 59.7164 127.366 59.0534 127.002 58.1954C126.638 57.3375 126.456 56.3235 126.456 55.1535C126.456 53.9576 126.638 52.6706 127.002 51.2926C127.366 49.9147 127.912 48.5627 128.64 47.2368C129.368 45.9108 130.251 44.7018 131.291 43.6099C132.331 42.5179 133.527 41.6469 134.879 40.9969C136.257 40.321 137.765 39.983 139.403 39.983C139.923 39.983 140.456 40.035 141.002 40.139C141.548 40.217 142.107 40.347 142.679 40.529C143.251 40.711 143.797 40.9319 144.317 41.1919L144.434 40.9579C144.564 40.646 144.759 40.438 145.019 40.334C145.279 40.204 145.617 40.139 146.033 40.139C146.839 40.139 147.346 40.269 147.554 40.529C147.788 40.763 147.814 41.1399 147.632 41.6599L138.389 69.9731C137.765 71.845 137.128 73.444 136.478 74.7699C135.828 76.0959 135.126 77.1749 134.372 78.0068C133.618 78.8648 132.76 79.4888 131.798 79.8788C130.862 80.2688 129.809 80.4638 128.64 80.4638ZM129.225 77.4609C130.004 77.4609 130.732 77.2009 131.408 76.6809C132.084 76.1609 132.721 75.3289 133.319 74.185C133.943 73.067 134.528 71.611 135.074 69.8171L136.517 65.4102C136.153 65.6442 135.789 65.8912 135.425 66.1512C135.061 66.4112 134.697 66.6712 134.333 66.9312C133.969 67.1912 133.605 67.4642 133.241 67.7501C132.201 68.5821 131.304 69.3751 130.55 70.1291C129.822 70.883 129.225 71.585 128.757 72.235C128.315 72.885 127.977 73.496 127.743 74.068C127.535 74.6659 127.431 75.2379 127.431 75.7839C127.431 76.0959 127.496 76.3819 127.626 76.6419C127.756 76.9019 127.951 77.0969 128.211 77.2269C128.497 77.3829 128.835 77.4609 129.225 77.4609ZM131.954 57.7664C132.864 57.7664 133.904 57.2985 135.074 56.3625C136.27 55.4005 137.531 54.0096 138.857 52.1896C140.209 50.3697 141.574 48.1337 142.952 45.4818L143.459 43.9219C142.575 43.5579 141.743 43.3239 140.963 43.2199C140.209 43.1159 139.507 43.0639 138.857 43.0639C137.739 43.0639 136.712 43.3239 135.776 43.8439C134.866 44.3638 134.047 45.0528 133.319 45.9108C132.617 46.7428 132.019 47.6787 131.525 48.7187C131.031 49.7327 130.654 50.7467 130.394 51.7606C130.134 52.7746 130.004 53.6976 130.004 54.5295C130.004 55.1795 130.082 55.7515 130.238 56.2455C130.394 56.7395 130.615 57.1165 130.901 57.3765C131.213 57.6364 131.564 57.7664 131.954 57.7664Z" fill="url(#paint2_linear_59_564)"/>
<path d="M152.576 55.3485C151.094 56.2325 149.586 57.1425 148.052 58.0784C146.518 59.0144 145.01 59.9504 143.528 60.8864C142.046 61.8223 140.655 62.7323 139.355 63.6163C139.199 63.7463 139.056 63.6943 138.926 63.4603C138.796 63.2523 138.705 62.9403 138.653 62.5243C138.601 62.1343 138.627 61.7443 138.731 61.3543C138.835 60.9643 139.043 60.6654 139.355 60.4574C140.655 59.5214 142.02 58.5984 143.45 57.6884C144.88 56.7785 146.336 55.8815 147.818 54.9975C149.3 54.1136 150.769 53.2426 152.225 52.3846C152.407 52.2546 152.563 52.3066 152.693 52.5406C152.849 52.7746 152.953 53.0866 153.005 53.4766C153.057 53.8666 153.044 54.2435 152.966 54.6075C152.914 54.9715 152.784 55.2185 152.576 55.3485Z" fill="url(#paint3_linear_59_564)"/>
<path d="M158.464 60.8864C157.503 60.8864 156.632 60.7304 155.852 60.4184C155.072 60.1324 154.383 59.7294 153.785 59.2094C153.213 58.6894 152.732 58.0784 152.342 57.3765C151.978 56.6485 151.692 55.8685 151.484 55.0365C151.302 54.2046 151.211 53.3466 151.211 52.4626C151.211 51.1366 151.393 49.7457 151.757 48.2897C152.121 46.8338 152.667 45.4818 153.395 44.2338C154.149 42.9859 155.111 41.9719 156.281 41.1919C157.451 40.386 158.841 39.983 160.453 39.983C161.285 39.983 162.013 40.165 162.637 40.529C163.287 40.8669 163.794 41.3349 164.158 41.9329C164.522 42.5309 164.704 43.2199 164.704 43.9999C164.704 45.1438 164.314 46.2618 163.534 47.3538C162.78 48.4197 161.792 49.4467 160.57 50.4347C159.374 51.4226 158.087 52.3326 156.71 53.1646C155.358 53.9966 154.084 54.7245 152.888 55.3485L151.874 52.7746C152.706 52.3066 153.642 51.7476 154.682 51.0976C155.748 50.4477 156.775 49.7457 157.762 48.9917C158.75 48.2377 159.569 47.4838 160.219 46.7298C160.869 45.9758 161.194 45.2738 161.194 44.6238C161.194 44.2338 161.077 43.8829 160.843 43.5709C160.635 43.2589 160.258 43.1029 159.712 43.1029C158.88 43.1029 158.152 43.4149 157.529 44.0389C156.905 44.6628 156.372 45.4558 155.93 46.4178C155.514 47.3538 155.189 48.3417 154.955 49.3817C154.747 50.3957 154.643 51.3056 154.643 52.1116C154.643 52.8916 154.721 53.6196 154.877 54.2955C155.033 54.9715 155.28 55.5695 155.618 56.0895C155.982 56.6095 156.463 57.0255 157.061 57.3375C157.659 57.6234 158.386 57.7664 159.244 57.7664C159.998 57.7664 160.739 57.5974 161.467 57.2595C162.221 56.8955 162.949 56.4275 163.651 55.8555C164.379 55.2575 165.055 54.6205 165.679 53.9446C165.991 53.5806 166.355 53.4506 166.771 53.5546C167.187 53.6586 167.525 53.8536 167.785 54.1396C168.045 54.4255 168.188 54.7245 168.214 55.0365C168.266 55.3485 168.136 55.6995 167.824 56.0895C166.836 57.3375 165.822 58.3124 164.782 59.0144C163.742 59.6904 162.689 60.1714 161.623 60.4574C160.583 60.7434 159.53 60.8864 158.464 60.8864Z" fill="url(#paint4_linear_59_564)"/>
<defs>
<linearGradient id="paint0_linear_59_564" x1="124.402" y1="4.38413" x2="143.369" y2="79.4172" gradientUnits="userSpaceOnUse">
<stop offset="0.370921" stop-color="#3A3185"/>
<stop offset="0.865145" stop-color="#39A788"/>
</linearGradient>
<linearGradient id="paint1_linear_59_564" x1="124.402" y1="4.38413" x2="143.369" y2="79.4172" gradientUnits="userSpaceOnUse">
<stop offset="0.370921" stop-color="#3A3185"/>
<stop offset="0.865145" stop-color="#39A788"/>
</linearGradient>
<linearGradient id="paint2_linear_59_564" x1="124.402" y1="4.38413" x2="143.369" y2="79.4172" gradientUnits="userSpaceOnUse">
<stop offset="0.370921" stop-color="#3A3185"/>
<stop offset="0.865145" stop-color="#39A788"/>
</linearGradient>
<linearGradient id="paint3_linear_59_564" x1="124.402" y1="4.38413" x2="143.369" y2="79.4172" gradientUnits="userSpaceOnUse">
<stop offset="0.370921" stop-color="#3A3185"/>
<stop offset="0.865145" stop-color="#39A788"/>
</linearGradient>
<linearGradient id="paint4_linear_59_564" x1="124.402" y1="4.38413" x2="143.369" y2="79.4172" gradientUnits="userSpaceOnUse">
<stop offset="0.370921" stop-color="#3A3185"/>
<stop offset="0.865145" stop-color="#39A788"/>
</linearGradient>
</defs>
</svg>
