<svg width="20" height="21" viewBox="0 0 20 21" fill="none" xmlns="http://www.w3.org/2000/svg">
<path d="M10 13.7084L14.5 9.19184L13.075 7.78668L10 10.873L6.925 7.78668L5.5 9.19184L10 13.7084ZM10 20.2324C8.61667 20.2324 7.31667 19.969 6.1 19.442C4.88333 18.9151 3.825 18.2 2.925 17.2966C2.025 16.3933 1.3125 15.3311 0.7875 14.1099C0.2625 12.8888 0 11.584 0 10.1955C0 8.80709 0.2625 7.5023 0.7875 6.28114C1.3125 5.05998 2.025 3.99775 2.925 3.09442C3.825 2.1911 4.88333 1.47597 6.1 0.949037C7.31667 0.4221 8.61667 0.158631 10 0.158631C11.3833 0.158631 12.6833 0.4221 13.9 0.949037C15.1167 1.47597 16.175 2.1911 17.075 3.09442C17.975 3.99775 18.6875 5.05998 19.2125 6.28114C19.7375 7.5023 20 8.80709 20 10.1955C20 11.584 19.7375 12.8888 19.2125 14.1099C18.6875 15.3311 17.975 16.3933 17.075 17.2966C16.175 18.2 15.1167 18.9151 13.9 19.442C12.6833 19.969 11.3833 20.2324 10 20.2324Z" fill="#4E44AE"/>
</svg>
