<svg width="41" height="41" viewBox="0 0 41 41" fill="none" xmlns="http://www.w3.org/2000/svg">
<g clip-path="url(#clip0_61_624)">
<path d="M20.3656 4.22312C25.7058 4.22312 26.3383 4.24346 28.4473 4.33972C30.3974 4.42864 31.4563 4.75443 32.161 5.02828C33.0946 5.39106 33.7608 5.82462 34.4607 6.52445C35.1605 7.22428 35.594 7.89055 35.9568 8.82407C36.2307 9.52879 36.5565 10.5877 36.6454 12.5378C36.7416 14.6468 36.762 15.2793 36.762 20.6195C36.762 25.9597 36.7416 26.5922 36.6454 28.7012C36.5565 30.6513 36.2307 31.7102 35.9568 32.4149C35.594 33.3485 35.1605 34.0147 34.4607 34.7146C33.7608 35.4144 33.0946 35.848 32.161 36.2107C31.4563 36.4846 30.3974 36.8104 28.4473 36.8993C26.3388 36.9956 25.7063 37.0159 20.3656 37.0159C15.0249 37.0159 14.3924 36.9956 12.2839 36.8993C10.3338 36.8104 9.27489 36.4846 8.57016 36.2107C7.63665 35.848 6.97038 35.4144 6.27055 34.7146C5.57072 34.0147 5.13715 33.3485 4.77438 32.4149C4.50052 31.7102 4.17473 30.6513 4.08582 28.7012C3.98955 26.5922 3.96922 25.9597 3.96922 20.6195C3.96922 15.2793 3.98955 14.6468 4.08582 12.5378C4.17473 10.5877 4.50052 9.52879 4.77438 8.82407C5.13715 7.89055 5.57072 7.22428 6.27055 6.52445C6.97038 5.82462 7.63665 5.39106 8.57016 5.02828C9.27489 4.75443 10.3338 4.42864 12.2839 4.33972C14.3929 4.2437 15.0254 4.22312 20.3656 4.22312ZM20.3656 0.619629C14.934 0.619629 14.2531 0.642654 12.1198 0.739901C9.99088 0.837147 8.53709 1.17518 7.26505 1.6695C5.9499 2.18071 4.83463 2.86437 3.72255 3.97621C2.61071 5.08805 1.9268 6.20356 1.41583 7.51871C0.921275 8.791 0.58324 10.2448 0.485994 12.3737C0.388748 14.507 0.365723 15.1879 0.365723 20.6195C0.365723 26.0511 0.388748 26.7323 0.485994 28.8653C0.58324 30.9942 0.921275 32.448 1.41559 33.7201C1.9268 35.0352 2.61047 36.1505 3.72231 37.2626C4.83415 38.3744 5.94966 39.0583 7.26481 39.5693C8.53709 40.0636 9.99088 40.4019 12.1195 40.4989C14.2528 40.5961 14.9338 40.6191 20.3654 40.6191C25.7969 40.6191 26.4781 40.5961 28.6112 40.4989C30.7401 40.4016 32.1939 40.0636 33.4659 39.5693C34.7811 39.0581 35.8963 38.3744 37.0084 37.2626C38.1202 36.1507 38.8041 35.0352 39.3151 33.7201C39.8094 32.4478 40.1477 30.994 40.2447 28.8653C40.342 26.732 40.365 26.0511 40.365 20.6195C40.365 15.1879 40.342 14.5067 40.2447 12.3734C40.1475 10.2445 39.8094 8.79075 39.3151 7.51871C38.8039 6.20356 38.1202 5.0883 37.0084 3.97621C35.8966 2.86437 34.7811 2.18047 33.4659 1.6695C32.1936 1.17518 30.7398 0.836902 28.6112 0.739901C26.4784 0.642654 25.7974 0.619629 20.3656 0.619629Z" fill="white"/>
<path d="M20.3656 10.3496C14.6935 10.3496 10.0952 14.9479 10.0952 20.62C10.0952 26.2921 14.6935 30.8903 20.3656 30.8903C26.0377 30.8903 30.6359 26.2921 30.6359 20.62C30.6359 14.9476 26.0377 10.3496 20.3656 10.3496ZM20.3656 27.2864C16.6837 27.2864 13.699 24.3016 13.699 20.6197C13.699 16.9378 16.6837 13.9531 20.3656 13.9531C24.0475 13.9531 27.0322 16.9378 27.0322 20.6197C27.0325 24.3016 24.0475 27.2864 20.3656 27.2864Z" fill="white"/>
<path d="M32.7384 11.6409C33.6757 10.7037 33.6757 9.18404 32.7384 8.24678C31.8012 7.30951 30.2816 7.30951 29.3443 8.24678C28.407 9.18404 28.407 10.7037 29.3443 11.6409C30.2816 12.5782 31.8012 12.5782 32.7384 11.6409Z" fill="white"/>
</g>
<defs>
<clipPath id="clip0_61_624">
<rect width="40" height="40" fill="white" transform="translate(0.365723 0.619629)"/>
</clipPath>
</defs>
</svg>
