<svg width="17" height="20" viewBox="0 0 17 20" fill="none" xmlns="http://www.w3.org/2000/svg">
<path d="M8.30859 10.0176C8.85859 10.0176 9.32943 9.83154 9.72109 9.45945C10.1128 9.08737 10.3086 8.64008 10.3086 8.11758C10.3086 7.59508 10.1128 7.14779 9.72109 6.7757C9.32943 6.40362 8.85859 6.21758 8.30859 6.21758C7.75859 6.21758 7.28776 6.40362 6.89609 6.7757C6.50443 7.14779 6.30859 7.59508 6.30859 8.11758C6.30859 8.64008 6.50443 9.08737 6.89609 9.45945C7.28776 9.83154 7.75859 10.0176 8.30859 10.0176ZM8.30859 17.0001C10.3419 15.2267 11.8503 13.6157 12.8336 12.167C13.8169 10.7182 14.3086 9.43174 14.3086 8.30758C14.3086 6.58174 13.7294 5.16862 12.5711 4.0682C11.4128 2.96779 9.99193 2.41758 8.30859 2.41758C6.62526 2.41758 5.20443 2.96779 4.04609 4.0682C2.88776 5.16862 2.30859 6.58174 2.30859 8.30758C2.30859 9.43174 2.80026 10.7182 3.78359 12.167C4.76693 13.6157 6.27526 15.2267 8.30859 17.0001ZM8.30859 19.5176C5.62526 17.3484 3.62109 15.3336 2.29609 13.4732C0.971094 11.6128 0.308594 9.89091 0.308594 8.30758C0.308594 5.93258 1.11276 4.04049 2.72109 2.63133C4.32943 1.22216 6.19193 0.517578 8.30859 0.517578C10.4253 0.517578 12.2878 1.22216 13.8961 2.63133C15.5044 4.04049 16.3086 5.93258 16.3086 8.30758C16.3086 9.89091 15.6461 11.6128 14.3211 13.4732C12.9961 15.3336 10.9919 17.3484 8.30859 19.5176Z" fill="#33A484"/>
</svg>
