<svg width="19" height="19" viewBox="0 0 19 19" fill="none" xmlns="http://www.w3.org/2000/svg">
<path d="M17.2586 18.5176C15.1753 18.5176 13.1169 18.0634 11.0836 17.1551C9.05026 16.2467 7.20026 14.9592 5.53359 13.2926C3.86693 11.6259 2.57943 9.77591 1.67109 7.74258C0.76276 5.70924 0.308594 3.65091 0.308594 1.56758C0.308594 1.26758 0.408594 1.01758 0.608594 0.817578C0.808594 0.617578 1.05859 0.517578 1.35859 0.517578H5.40859C5.64193 0.517578 5.85026 0.596745 6.03359 0.755078C6.21693 0.913411 6.32526 1.10091 6.35859 1.31758L7.00859 4.81758C7.04193 5.08424 7.03359 5.30924 6.98359 5.49258C6.93359 5.67591 6.84193 5.83424 6.70859 5.96758L4.28359 8.41758C4.61693 9.03424 5.01276 9.63008 5.47109 10.2051C5.92943 10.7801 6.43359 11.3342 6.98359 11.8676C7.50026 12.3842 8.04193 12.8634 8.60859 13.3051C9.17526 13.7467 9.77526 14.1509 10.4086 14.5176L12.7586 12.1676C12.9086 12.0176 13.1044 11.9051 13.3461 11.8301C13.5878 11.7551 13.8253 11.7342 14.0586 11.7676L17.5086 12.4676C17.7419 12.5342 17.9336 12.6551 18.0836 12.8301C18.2336 13.0051 18.3086 13.2009 18.3086 13.4176V17.4676C18.3086 17.7676 18.2086 18.0176 18.0086 18.2176C17.8086 18.4176 17.5586 18.5176 17.2586 18.5176ZM3.33359 6.51758L4.98359 4.86758L4.55859 2.51758H2.33359C2.41693 3.20091 2.53359 3.87591 2.68359 4.54258C2.83359 5.20924 3.05026 5.86758 3.33359 6.51758ZM12.2836 15.4676C12.9336 15.7509 13.5961 15.9759 14.2711 16.1426C14.9461 16.3092 15.6253 16.4176 16.3086 16.4676V14.2676L13.9586 13.7926L12.2836 15.4676Z" fill="#33A484"/>
</svg>
