<svg width="21" height="17" viewBox="0 0 21 17" fill="none" xmlns="http://www.w3.org/2000/svg">
<path d="M2.30859 16.5176C1.75859 16.5176 1.28776 16.3217 0.896094 15.9301C0.504427 15.5384 0.308594 15.0676 0.308594 14.5176V2.51758C0.308594 1.96758 0.504427 1.49674 0.896094 1.10508C1.28776 0.713411 1.75859 0.517578 2.30859 0.517578H18.3086C18.8586 0.517578 19.3294 0.713411 19.7211 1.10508C20.1128 1.49674 20.3086 1.96758 20.3086 2.51758V14.5176C20.3086 15.0676 20.1128 15.5384 19.7211 15.9301C19.3294 16.3217 18.8586 16.5176 18.3086 16.5176H2.30859ZM18.3086 4.51758L10.8336 9.19258C10.7503 9.24258 10.6628 9.28008 10.5711 9.30508C10.4794 9.33008 10.3919 9.34258 10.3086 9.34258C10.2253 9.34258 10.1378 9.33008 10.0461 9.30508C9.95443 9.28008 9.86693 9.24258 9.78359 9.19258L2.30859 4.51758V14.5176H18.3086V4.51758ZM10.3086 7.51758L18.3086 2.51758H2.30859L10.3086 7.51758ZM2.30859 4.76758V3.29258V3.31758V3.30508V4.76758Z" fill="#33A484"/>
</svg>
