<svg width="41" height="41" viewBox="0 0 41 41" fill="none" xmlns="http://www.w3.org/2000/svg">
<g clip-path="url(#clip0_61_619)">
<path d="M0.365723 20.6161C0.364326 9.57048 9.33066 0.61125 20.3783 0.619635C31.4329 0.62802 40.3783 9.58865 40.3657 20.6385C40.3532 31.6814 31.4148 40.6154 20.3741 40.6196C9.32368 40.6238 0.36712 31.6702 0.365723 20.6161ZM22.1188 30.8345C22.1188 30.6542 22.1188 30.5159 22.1188 30.3775C22.1188 28.4252 22.116 26.4716 22.1202 24.5193C22.1216 23.7409 22.109 22.9611 22.1537 22.1841C22.2082 21.2324 22.6985 20.5141 23.5044 20.032C24.8622 19.2201 26.4937 19.8028 26.9854 21.2967C27.1488 21.7956 27.2298 22.342 27.2354 22.8689C27.2619 25.3801 27.248 27.89 27.2494 30.4013C27.2494 30.5382 27.2494 30.6738 27.2494 30.8303C28.8823 30.8303 30.4789 30.8303 32.102 30.8303C32.109 30.6975 32.1202 30.5843 32.1202 30.4712C32.1216 27.8201 32.1327 25.1705 32.1118 22.5195C32.1062 21.8264 32.0503 21.122 31.9204 20.4415C31.5447 18.4738 30.5767 16.9324 28.6085 16.2099C26.6208 15.479 23.8313 15.6858 22.2864 18.0336C22.2584 18.0755 22.2138 18.1049 22.1202 18.1915C22.1202 17.5892 22.1076 17.0582 22.1257 16.5285C22.1341 16.27 22.0545 16.1875 21.7919 16.1903C20.3979 16.2015 19.0024 16.2015 17.6084 16.1903C17.3402 16.1875 17.2522 16.2588 17.2522 16.5425C17.2591 21.157 17.255 25.7728 17.2536 30.3873C17.2536 30.5326 17.2536 30.678 17.2536 30.8359C18.8962 30.8345 20.4831 30.8345 22.1188 30.8345ZM14.5325 30.8359C14.5409 30.7129 14.5507 30.6333 14.5507 30.5536C14.5521 25.8804 14.5493 21.2059 14.5577 16.5327C14.5577 16.235 14.4403 16.1903 14.1875 16.1917C12.8046 16.2001 11.4217 16.1959 10.0389 16.1973C9.92712 16.1973 9.81676 16.2127 9.70921 16.2211C9.70921 21.115 9.70921 25.9685 9.70921 30.8359C11.3226 30.8359 12.9108 30.8359 14.5325 30.8359ZM9.4019 11.6234C9.38095 13.0935 10.497 14.178 12.0587 14.2031C13.6553 14.2297 14.8608 13.162 14.8817 11.703C14.9027 10.2329 13.7782 9.14844 12.2137 9.13167C10.578 9.1135 9.42286 10.1365 9.4019 11.6234Z" fill="white"/>
</g>
<defs>
<clipPath id="clip0_61_619">
<rect width="40" height="40" fill="white" transform="translate(0.365723 0.619629)"/>
</clipPath>
</defs>
</svg>
