<svg width="41" height="41" viewBox="0 0 41 41" fill="none" xmlns="http://www.w3.org/2000/svg">
<g clip-path="url(#clip0_61_630)">
<path d="M31.4915 19.1588C31.2911 19.0764 31.0879 18.9968 30.8819 18.9208C30.523 13.232 26.91 9.97483 20.843 9.94163C20.8155 9.94163 20.7881 9.94163 20.7607 9.94163C17.1318 9.94163 14.1139 11.2744 12.256 13.6992L15.5929 15.6684C16.9807 13.8572 19.1585 13.4708 20.7625 13.4708C20.7811 13.4708 20.7997 13.4708 20.8179 13.4708C22.8157 13.4816 24.323 13.9816 25.2985 14.956C26.0084 15.6656 26.4831 16.6456 26.7184 17.8832C24.9475 17.6244 23.0319 17.5444 20.9843 17.6456C15.2158 17.9312 11.5075 20.8256 11.7567 24.8472C11.8832 26.8872 13.0646 28.6424 15.0829 29.7888C16.7897 30.758 18.9874 31.232 21.2717 31.1248C24.2882 30.9824 26.6547 29.9924 28.3062 28.1816C29.5601 26.8064 30.3533 25.0248 30.7034 22.7796C32.141 23.526 33.2066 24.5084 33.7948 25.6892C34.7953 27.6964 34.8539 30.9952 31.7253 33.6844C28.9845 36.0404 25.6895 37.0596 20.7105 37.0908C15.187 37.0556 11.01 35.5316 8.29384 32.5612C5.75017 29.7792 4.43579 25.7616 4.38697 20.6196C4.43579 15.4776 5.75017 11.46 8.29384 8.67843C11.01 5.70803 15.187 4.18403 20.7105 4.14883C26.2739 4.18443 30.5239 5.71563 33.3438 8.70043C34.7265 10.164 35.7689 12.0048 36.4561 14.1508L40.3662 13.2532C39.533 10.6116 38.2224 8.33523 36.4389 6.44723C32.823 2.62083 27.5362 0.660429 20.7235 0.619629H20.6961C13.8977 0.660029 8.66951 2.62843 5.15737 6.46963C2.03206 9.88763 0.42012 14.6436 0.365723 20.6056V20.6196V20.6336C0.42012 26.5956 2.03206 31.3516 5.15737 34.77C8.66951 38.6108 13.8977 40.5792 20.6965 40.6196H20.724C26.7682 40.5836 31.0288 39.222 34.5387 36.2052C39.1308 32.2584 38.9923 27.3112 37.4789 24.274C36.3928 22.096 34.3225 20.3272 31.4915 19.1588ZM21.0555 27.6004C18.5271 27.7228 15.9007 26.7468 15.7714 24.6556C15.6757 23.1052 17.0537 21.3752 21.2107 21.1692C21.6868 21.1456 22.1541 21.134 22.613 21.134C24.1227 21.134 25.5351 21.26 26.8193 21.5016C26.3404 26.6476 23.5308 27.4832 21.0555 27.6004Z" fill="white"/>
</g>
<defs>
<clipPath id="clip0_61_630">
<rect width="40" height="40" fill="white" transform="translate(0.365723 0.619629)"/>
</clipPath>
</defs>
</svg>
