<svg width="41" height="29" viewBox="0 0 41 29" fill="none" xmlns="http://www.w3.org/2000/svg">
<path d="M16.2459 19.6939L27.0454 14.2262L16.2459 8.67991V19.6939ZM20.3657 0.773438C28.7653 0.773438 34.3651 1.16679 34.3651 1.16679C35.125 1.2848 36.8449 1.2848 38.3649 2.85823C38.3649 2.85823 39.6048 4.0383 39.9648 6.75246C40.4048 9.93865 40.3648 13.1248 40.3648 13.1248V16.1143C40.3648 16.1143 40.4048 19.3005 39.9648 22.4867C39.6048 25.1615 38.3649 26.381 38.3649 26.381C36.8449 27.9544 35.125 27.9544 34.3651 28.0331C34.3651 28.0331 28.7653 28.4657 20.3657 28.4657C9.96622 28.3477 6.76637 28.0331 6.76637 28.0331C5.88641 27.8757 3.8865 27.9544 2.36657 26.381C2.36657 26.381 1.12663 25.1615 0.76665 22.4867C0.326671 19.3005 0.366669 16.1143 0.366669 16.1143V13.1248C0.366669 13.1248 0.326671 9.93865 0.76665 6.75246C1.12663 4.0383 2.36657 2.85823 2.36657 2.85823C3.8865 1.2848 5.60642 1.2848 6.36639 1.16679C6.36639 1.16679 11.9661 0.773438 20.3657 0.773438Z" fill="white"/>
</svg>
