<svg width="20" height="21" viewBox="0 0 20 21" fill="none" xmlns="http://www.w3.org/2000/svg">
<path d="M10 20.0439C8.61667 20.0439 7.31667 19.7814 6.1 19.2564C4.88333 18.7314 3.825 18.0189 2.925 17.1189C2.025 16.2189 1.3125 15.1606 0.7875 13.9439C0.2625 12.7273 0 11.4273 0 10.0439C0 8.66061 0.2625 7.36061 0.7875 6.14395C1.3125 4.92728 2.025 3.86895 2.925 2.96895C3.825 2.06895 4.88333 1.35645 6.1 0.831445C7.31667 0.306445 8.61667 0.0439453 10 0.0439453C11.0833 0.0439453 12.1083 0.202279 13.075 0.518945C14.0417 0.835612 14.9333 1.27728 15.75 1.84395L14.3 3.31895C13.6667 2.91895 12.9917 2.60645 12.275 2.38145C11.5583 2.15645 10.8 2.04395 10 2.04395C7.78333 2.04395 5.89583 2.82311 4.3375 4.38145C2.77917 5.93978 2 7.82728 2 10.0439C2 12.2606 2.77917 14.1481 4.3375 15.7064C5.89583 17.2648 7.78333 18.0439 10 18.0439C12.2167 18.0439 14.1042 17.2648 15.6625 15.7064C17.2208 14.1481 18 12.2606 18 10.0439C18 9.74395 17.9833 9.44395 17.95 9.14395C17.9167 8.84395 17.8667 8.55228 17.8 8.26895L19.425 6.64395C19.6083 7.17728 19.75 7.72728 19.85 8.29395C19.95 8.86061 20 9.44395 20 10.0439C20 11.4273 19.7375 12.7273 19.2125 13.9439C18.6875 15.1606 17.975 16.2189 17.075 17.1189C16.175 18.0189 15.1167 18.7314 13.9 19.2564C12.6833 19.7814 11.3833 20.0439 10 20.0439ZM8.6 14.6439L4.35 10.3939L5.75 8.99395L8.6 11.8439L18.6 1.81895L20 3.21895L8.6 14.6439Z" fill="white"/>
</svg>
