<svg width="45" height="42" viewBox="0 0 45 42" fill="none" xmlns="http://www.w3.org/2000/svg">
<path d="M31.1825 19.8047C31.7963 19.8047 32.3109 19.597 32.7262 19.1818C33.1415 18.7665 33.3491 18.2519 33.3491 17.638C33.3491 17.0241 33.1415 16.5095 32.7262 16.0943C32.3109 15.679 31.7963 15.4714 31.1825 15.4714C30.5686 15.4714 30.054 15.679 29.6387 16.0943C29.2234 16.5095 29.0158 17.0241 29.0158 17.638C29.0158 18.2519 29.2234 18.7665 29.6387 19.1818C30.054 19.597 30.5686 19.8047 31.1825 19.8047ZM13.8491 15.4714H24.6825V11.138H13.8491V15.4714ZM6.26579 41.4714C5.03801 37.3547 3.82829 33.247 2.63662 29.1484C1.44495 25.0498 0.849121 20.8519 0.849121 16.5547C0.849121 13.2325 2.00468 10.4158 4.31579 8.10469C6.6269 5.79358 9.44357 4.63802 12.7658 4.63802H23.5991C24.6463 3.2658 25.9193 2.20052 27.4179 1.44219C28.9165 0.683854 30.5325 0.304688 32.2658 0.304688C33.1686 0.304688 33.9359 0.62066 34.5679 1.2526C35.1998 1.88455 35.5158 2.65191 35.5158 3.55469C35.5158 3.77135 35.4887 3.98802 35.4345 4.20469C35.3804 4.42135 35.3172 4.61997 35.245 4.80052C35.1005 5.19774 34.9651 5.60399 34.8387 6.01927C34.7123 6.43455 34.613 6.85885 34.5408 7.29219L39.47 12.2214H44.1825V27.3339L38.0616 29.338L34.4325 41.4714H22.5158V37.138H18.1825V41.4714H6.26579ZM9.51579 37.138H13.8491V32.8047H26.8491V37.138H31.1825L34.5408 25.9797L39.8491 24.1922V16.5547H37.6825L30.0991 8.97135C30.0991 8.24913 30.1443 7.55399 30.2345 6.88594C30.3248 6.21788 30.4602 5.5408 30.6408 4.85469C29.5936 5.14358 28.6727 5.6401 27.8783 6.34427C27.0838 7.04844 26.5061 7.92413 26.145 8.97135H12.7658C10.6713 8.97135 8.88384 9.71163 7.40329 11.1922C5.92273 12.6727 5.18245 14.4602 5.18245 16.5547C5.18245 20.0936 5.66995 23.5512 6.64495 26.9276C7.61995 30.304 8.5769 33.7075 9.51579 37.138Z" fill="#150EC5"/>
</svg>
