<svg width="36" height="36" viewBox="0 0 36 36" fill="none" xmlns="http://www.w3.org/2000/svg">
<path d="M6.59248 14.1329L10.005 15.5766C10.4133 14.7599 10.8362 13.9724 11.2737 13.2141C11.7112 12.4558 12.1925 11.6974 12.7175 10.9391L10.2675 10.4579L6.59248 14.1329ZM12.805 17.7641L17.7925 22.7079C19.0175 22.2412 20.33 21.5266 21.73 20.5641C23.13 19.6016 24.4425 18.5079 25.6675 17.2829C27.7092 15.2412 29.306 12.9735 30.4581 10.4797C31.6102 7.98599 32.1133 5.68911 31.9675 3.58911C29.8675 3.44328 27.5633 3.9464 25.055 5.09849C22.5466 6.25057 20.2717 7.84745 18.23 9.88911C17.005 11.1141 15.9112 12.4266 14.9487 13.8266C13.9862 15.2266 13.2716 16.5391 12.805 17.7641ZM20.5925 14.9204C19.9216 14.2495 19.5862 13.4256 19.5862 12.4485C19.5862 11.4714 19.9216 10.6474 20.5925 9.97661C21.2633 9.30578 22.0946 8.97036 23.0862 8.97036C24.0779 8.97036 24.9092 9.30578 25.58 9.97661C26.2508 10.6474 26.5862 11.4714 26.5862 12.4485C26.5862 13.4256 26.2508 14.2495 25.58 14.9204C24.9092 15.5912 24.0779 15.9266 23.0862 15.9266C22.0946 15.9266 21.2633 15.5912 20.5925 14.9204ZM21.4237 28.9641L25.0987 25.2891L24.6175 22.8391C23.8591 23.3641 23.1008 23.8381 22.3425 24.261C21.5842 24.6839 20.7966 25.0995 19.98 25.5079L21.4237 28.9641ZM35.1175 0.395363C35.6717 3.92453 35.3289 7.3589 34.0894 10.6985C32.8498 14.0381 30.7133 17.2245 27.68 20.2579L28.555 24.5891C28.6717 25.1724 28.6425 25.7412 28.4675 26.2954C28.2925 26.8495 28.0008 27.3308 27.5925 27.7391L20.2425 35.0891L16.5675 26.4704L9.08623 18.9891L0.46748 15.3141L7.77373 7.96411C8.18207 7.55578 8.67061 7.26411 9.23936 7.08911C9.80811 6.91411 10.3841 6.88495 10.9675 7.00161L15.2987 7.87661C18.3321 4.84328 21.5112 2.69953 24.8362 1.44536C28.1612 0.191196 31.5883 -0.158804 35.1175 0.395363ZM3.57373 24.5454C4.59456 23.5245 5.84144 23.0068 7.31436 22.9922C8.78727 22.9777 10.0341 23.4808 11.055 24.5016C12.0758 25.5224 12.5789 26.7693 12.5644 28.2422C12.5498 29.7152 12.0321 30.962 11.0112 31.9829C10.2821 32.712 9.06436 33.3391 7.35811 33.8641C5.65186 34.3891 3.29665 34.8558 0.29248 35.2641C0.700814 32.2599 1.16748 29.9047 1.69248 28.1985C2.21748 26.4922 2.84456 25.2745 3.57373 24.5454ZM6.06748 26.9954C5.77581 27.287 5.48415 27.8193 5.19248 28.5922C4.90081 29.3652 4.69665 30.1454 4.57998 30.9329C5.36748 30.8162 6.14769 30.6193 6.92061 30.3422C7.69352 30.0652 8.22581 29.7808 8.51748 29.4891C8.86748 29.1391 9.05707 28.7162 9.08623 28.2204C9.1154 27.7245 8.95498 27.3016 8.60498 26.9516C8.25498 26.6016 7.83207 26.4339 7.33623 26.4485C6.8404 26.4631 6.41748 26.6454 6.06748 26.9954Z" fill="#150EC5"/>
</svg>
