<svg width="36" height="35" viewBox="0 0 36 35" fill="none" xmlns="http://www.w3.org/2000/svg">
<path d="M3.7168 27.2207V30.7207H31.7168V27.2207H3.7168ZM3.7168 7.9707H7.5668C7.42096 7.7082 7.32617 7.43112 7.28242 7.13945C7.23867 6.84779 7.2168 6.54154 7.2168 6.2207C7.2168 4.76237 7.72721 3.52279 8.74805 2.50195C9.76888 1.48112 11.0085 0.970703 12.4668 0.970703C13.3418 0.970703 14.1512 1.19674 14.8949 1.64883C15.6387 2.10091 16.2876 2.66237 16.8418 3.3332L17.7168 4.4707L18.5918 3.3332C19.1168 2.6332 19.7585 2.06445 20.5168 1.62695C21.2751 1.18945 22.0918 0.970703 22.9668 0.970703C24.4251 0.970703 25.6647 1.48112 26.6855 2.50195C27.7064 3.52279 28.2168 4.76237 28.2168 6.2207C28.2168 6.54154 28.1949 6.84779 28.1512 7.13945C28.1074 7.43112 28.0126 7.7082 27.8668 7.9707H31.7168C32.6793 7.9707 33.5033 8.31341 34.1887 8.99883C34.8741 9.68425 35.2168 10.5082 35.2168 11.4707V30.7207C35.2168 31.6832 34.8741 32.5072 34.1887 33.1926C33.5033 33.878 32.6793 34.2207 31.7168 34.2207H3.7168C2.7543 34.2207 1.93034 33.878 1.24492 33.1926C0.559505 32.5072 0.216797 31.6832 0.216797 30.7207V11.4707C0.216797 10.5082 0.559505 9.68425 1.24492 8.99883C1.93034 8.31341 2.7543 7.9707 3.7168 7.9707ZM3.7168 21.9707H31.7168V11.4707H22.7918L26.4668 16.4582L23.6668 18.4707L17.7168 10.4207L11.7668 18.4707L8.9668 16.4582L12.5543 11.4707H3.7168V21.9707ZM12.4668 7.9707C12.9626 7.9707 13.3783 7.80299 13.7137 7.46758C14.0491 7.13216 14.2168 6.71654 14.2168 6.2207C14.2168 5.72487 14.0491 5.30924 13.7137 4.97383C13.3783 4.63841 12.9626 4.4707 12.4668 4.4707C11.971 4.4707 11.5553 4.63841 11.2199 4.97383C10.8845 5.30924 10.7168 5.72487 10.7168 6.2207C10.7168 6.71654 10.8845 7.13216 11.2199 7.46758C11.5553 7.80299 11.971 7.9707 12.4668 7.9707ZM22.9668 7.9707C23.4626 7.9707 23.8783 7.80299 24.2137 7.46758C24.5491 7.13216 24.7168 6.71654 24.7168 6.2207C24.7168 5.72487 24.5491 5.30924 24.2137 4.97383C23.8783 4.63841 23.4626 4.4707 22.9668 4.4707C22.471 4.4707 22.0553 4.63841 21.7199 4.97383C21.3845 5.30924 21.2168 5.72487 21.2168 6.2207C21.2168 6.71654 21.3845 7.13216 21.7199 7.46758C22.0553 7.80299 22.471 7.9707 22.9668 7.9707Z" fill="#22A183"/>
</svg>
