<svg width="40" height="45" viewBox="0 0 40 45" fill="none" xmlns="http://www.w3.org/2000/svg">
<path d="M5.27669 44.1986C4.08503 44.1986 3.06489 43.7743 2.21628 42.9256C1.36766 42.077 0.943359 41.0569 0.943359 39.8652V9.5319C0.943359 8.34023 1.36766 7.3201 2.21628 6.47148C3.06489 5.62287 4.08503 5.19857 5.27669 5.19857H7.44336V0.865234H11.7767V5.19857H29.11V0.865234H33.4434V5.19857H35.61C36.8017 5.19857 37.8218 5.62287 38.6704 6.47148C39.5191 7.3201 39.9434 8.34023 39.9434 9.5319V39.8652C39.9434 41.0569 39.5191 42.077 38.6704 42.9256C37.8218 43.7743 36.8017 44.1986 35.61 44.1986H5.27669ZM5.27669 39.8652H35.61V18.1986H5.27669V39.8652ZM5.27669 13.8652H35.61V9.5319H5.27669V13.8652ZM20.4434 26.8652C19.8295 26.8652 19.3149 26.6576 18.8996 26.2423C18.4843 25.827 18.2767 25.3125 18.2767 24.6986C18.2767 24.0847 18.4843 23.5701 18.8996 23.1548C19.3149 22.7395 19.8295 22.5319 20.4434 22.5319C21.0572 22.5319 21.5718 22.7395 21.9871 23.1548C22.4024 23.5701 22.61 24.0847 22.61 24.6986C22.61 25.3125 22.4024 25.827 21.9871 26.2423C21.5718 26.6576 21.0572 26.8652 20.4434 26.8652ZM11.7767 26.8652C11.1628 26.8652 10.6482 26.6576 10.2329 26.2423C9.81767 25.827 9.61003 25.3125 9.61003 24.6986C9.61003 24.0847 9.81767 23.5701 10.2329 23.1548C10.6482 22.7395 11.1628 22.5319 11.7767 22.5319C12.3906 22.5319 12.9052 22.7395 13.3204 23.1548C13.7357 23.5701 13.9434 24.0847 13.9434 24.6986C13.9434 25.3125 13.7357 25.827 13.3204 26.2423C12.9052 26.6576 12.3906 26.8652 11.7767 26.8652ZM29.11 26.8652C28.4961 26.8652 27.9816 26.6576 27.5663 26.2423C27.151 25.827 26.9434 25.3125 26.9434 24.6986C26.9434 24.0847 27.151 23.5701 27.5663 23.1548C27.9816 22.7395 28.4961 22.5319 29.11 22.5319C29.7239 22.5319 30.2385 22.7395 30.6538 23.1548C31.0691 23.5701 31.2767 24.0847 31.2767 24.6986C31.2767 25.3125 31.0691 25.827 30.6538 26.2423C30.2385 26.6576 29.7239 26.8652 29.11 26.8652ZM20.4434 35.5319C19.8295 35.5319 19.3149 35.3243 18.8996 34.909C18.4843 34.4937 18.2767 33.9791 18.2767 33.3652C18.2767 32.7513 18.4843 32.2368 18.8996 31.8215C19.3149 31.4062 19.8295 31.1986 20.4434 31.1986C21.0572 31.1986 21.5718 31.4062 21.9871 31.8215C22.4024 32.2368 22.61 32.7513 22.61 33.3652C22.61 33.9791 22.4024 34.4937 21.9871 34.909C21.5718 35.3243 21.0572 35.5319 20.4434 35.5319ZM11.7767 35.5319C11.1628 35.5319 10.6482 35.3243 10.2329 34.909C9.81767 34.4937 9.61003 33.9791 9.61003 33.3652C9.61003 32.7513 9.81767 32.2368 10.2329 31.8215C10.6482 31.4062 11.1628 31.1986 11.7767 31.1986C12.3906 31.1986 12.9052 31.4062 13.3204 31.8215C13.7357 32.2368 13.9434 32.7513 13.9434 33.3652C13.9434 33.9791 13.7357 34.4937 13.3204 34.909C12.9052 35.3243 12.3906 35.5319 11.7767 35.5319ZM29.11 35.5319C28.4961 35.5319 27.9816 35.3243 27.5663 34.909C27.151 34.4937 26.9434 33.9791 26.9434 33.3652C26.9434 32.7513 27.151 32.2368 27.5663 31.8215C27.9816 31.4062 28.4961 31.1986 29.11 31.1986C29.7239 31.1986 30.2385 31.4062 30.6538 31.8215C31.0691 32.2368 31.2767 32.7513 31.2767 33.3652C31.2767 33.9791 31.0691 34.4937 30.6538 34.909C30.2385 35.3243 29.7239 35.5319 29.11 35.5319Z" fill="#150EC5"/>
</svg>
