<svg width="49" height="36" viewBox="0 0 49 36" fill="none" xmlns="http://www.w3.org/2000/svg">
<path d="M28.7331 19.9004C26.9275 19.9004 25.3928 19.2684 24.1289 18.0046C22.865 16.7407 22.2331 15.2059 22.2331 13.4004C22.2331 11.5948 22.865 10.0601 24.1289 8.79622C25.3928 7.53234 26.9275 6.90039 28.7331 6.90039C30.5386 6.90039 32.0734 7.53234 33.3372 8.79622C34.6011 10.0601 35.2331 11.5948 35.2331 13.4004C35.2331 15.2059 34.6011 16.7407 33.3372 18.0046C32.0734 19.2684 30.5386 19.9004 28.7331 19.9004ZM13.5664 26.4004C12.3747 26.4004 11.3546 25.9761 10.506 25.1275C9.65738 24.2789 9.23307 23.2587 9.23307 22.0671V4.73372C9.23307 3.54206 9.65738 2.52192 10.506 1.67331C11.3546 0.824696 12.3747 0.400391 13.5664 0.400391H43.8997C45.0914 0.400391 46.1115 0.824696 46.9602 1.67331C47.8088 2.52192 48.2331 3.54206 48.2331 4.73372V22.0671C48.2331 23.2587 47.8088 24.2789 46.9602 25.1275C46.1115 25.9761 45.0914 26.4004 43.8997 26.4004H13.5664ZM17.8997 22.0671H39.5664C39.5664 20.8754 39.9907 19.8553 40.8393 19.0066C41.6879 18.158 42.7081 17.7337 43.8997 17.7337V9.06706C42.7081 9.06706 41.6879 8.64275 40.8393 7.79414C39.9907 6.94553 39.5664 5.92539 39.5664 4.73372H17.8997C17.8997 5.92539 17.4754 6.94553 16.6268 7.79414C15.7782 8.64275 14.7581 9.06706 13.5664 9.06706V17.7337C14.7581 17.7337 15.7782 18.158 16.6268 19.0066C17.4754 19.8553 17.8997 20.8754 17.8997 22.0671ZM41.7331 35.0671H4.89974C3.70807 35.0671 2.68793 34.6428 1.83932 33.7941C0.990712 32.9455 0.566406 31.9254 0.566406 30.7337V6.90039H4.89974V30.7337H41.7331V35.0671Z" fill="#22A183"/>
</svg>
