<svg width="42" height="43" viewBox="0 0 42 43" fill="none" xmlns="http://www.w3.org/2000/svg">
<path d="M25.2006 0.814453C26.0069 0.967367 26.841 1.05077 27.6333 1.301C32.8741 2.96914 36.0158 6.54175 36.8081 11.991C37.7812 18.7609 33.1938 25.0165 26.4795 26.2815C19.9043 27.5326 13.3012 23.1537 11.8276 16.5784C10.3958 10.2673 13.6487 4.02563 19.654 1.69023C20.6966 1.28709 21.8365 1.14808 22.9347 0.883959C23.032 0.856157 23.1432 0.842256 23.2405 0.814453C23.8939 0.814453 24.5473 0.814453 25.2006 0.814453ZM22.8096 20.2762C22.8096 20.4013 22.8235 20.4847 22.8235 20.5542C22.8374 21.3883 23.3379 21.9304 24.0607 21.9165C24.7836 21.9026 25.2701 21.3605 25.2701 20.5125C25.2701 20.2345 25.3535 20.1093 25.6038 20.012C27.5082 19.2614 28.6203 17.2596 28.2172 15.2717C27.9253 13.8399 27.0078 12.9502 25.6733 12.4081C24.8531 12.0744 24.0468 11.713 23.2405 11.3516C22.8652 11.1848 22.615 10.9067 22.6706 10.4619C22.7401 9.94755 22.9486 9.54442 23.463 9.3776C24.1858 9.15518 24.8531 9.26639 25.4786 9.68343C26.0625 10.0727 26.8132 9.89195 27.1746 9.3498C27.5499 8.79375 27.4109 8.04309 26.8271 7.66775C26.4656 7.43143 26.0764 7.23682 25.6733 7.0839C25.3813 6.97269 25.2423 6.88929 25.2423 6.52785C25.2423 5.81889 24.6863 5.31845 24.0051 5.33235C23.3379 5.38795 22.8235 5.9023 22.8374 6.61126C22.8374 6.93099 22.7401 7.07 22.4343 7.19511C21.0581 7.79286 20.3491 8.90496 20.2518 10.3785C20.1545 11.7408 20.7522 12.7695 21.9477 13.4507C22.2119 13.6036 22.4621 13.7565 22.7401 13.8816C23.4769 14.2013 24.2275 14.4794 24.9643 14.7852C25.6038 15.0493 25.9096 15.5358 25.8679 16.1892C25.8123 16.9677 25.2423 17.6627 24.4778 17.8156C23.5464 17.9964 22.6706 17.8712 21.8643 17.3291C21.2249 16.9121 20.4881 17.0789 20.1128 17.6627C19.7374 18.2605 19.9321 18.9694 20.5715 19.3865C21.2388 19.8452 21.9616 20.1649 22.8096 20.2762Z" fill="#22A183"/>
<path d="M7.04517 42.6291C7.04517 42.4484 7.04517 42.2816 7.04517 42.1287C7.04517 38.5144 7.04517 34.914 7.04517 31.2996C7.04517 28.9225 8.25457 27.4907 10.5761 26.9486C13.4953 26.2674 16.2339 26.6705 18.8751 28.0746C19.5841 28.4499 20.3208 28.7835 21.0854 29.0059C21.7666 29.2145 22.4894 29.3257 23.1984 29.3535C24.4078 29.4091 25.6172 29.3674 26.8405 29.3674C27.7719 29.3674 28.2306 29.8678 28.2167 30.7992C28.175 32.5508 27.2436 33.788 25.7006 34.1077C25.4226 34.1772 25.1306 34.1772 24.8526 34.1772C22.5172 34.1772 20.1957 34.1633 17.8603 34.1911C17.5267 34.1911 17.1653 34.3162 16.8872 34.4969C16.4702 34.7749 16.3451 35.3171 16.498 35.7758C16.6787 36.2624 17.0262 36.5682 17.5545 36.6099C17.9298 36.6377 18.3191 36.6238 18.6944 36.6238C20.7518 36.6238 22.8091 36.6099 24.8665 36.6238C25.8813 36.6377 26.7154 36.2763 27.4243 35.5673C29.1203 33.8714 30.8023 32.1615 32.5122 30.4795C34.6669 28.3526 38.0032 28.1997 40.3664 30.1041C40.4637 30.1875 40.561 30.2571 40.6444 30.3405C41.3395 30.9799 41.3534 31.6889 40.6861 32.3561C37.892 35.1503 35.0978 37.9444 32.3037 40.7386C32.1647 40.8776 32.0396 41.0166 31.9005 41.1417C30.858 42.1148 29.6346 42.6291 28.2028 42.6291C21.2661 42.643 14.3433 42.6291 7.4066 42.6291C7.29539 42.643 7.19808 42.643 7.04517 42.6291Z" fill="#22A183"/>
<path d="M4.5859 42.6446C3.59891 42.6446 2.66753 42.6724 1.72225 42.6307C1.02719 42.6168 0.58235 42.0746 0.58235 41.3101C0.58235 38.8634 0.58235 36.4029 0.58235 33.9563C0.58235 33.2474 0.568449 32.5384 0.58235 31.8294C0.596251 31.2317 0.957683 30.6895 1.51373 30.6617C2.52852 30.6061 3.54331 30.6478 4.572 30.6478C4.5859 34.6375 4.5859 38.6132 4.5859 42.6446Z" fill="#22A183"/>
</svg>
