<svg width="44" height="40" viewBox="0 0 44 40" fill="none" xmlns="http://www.w3.org/2000/svg">
<path d="M4.80794 8.86393H39.4746V4.5306H4.80794V8.86393ZM0.474609 4.5306C0.474609 3.33893 0.898915 2.31879 1.74753 1.47018C2.59614 0.621571 3.61628 0.197266 4.80794 0.197266H39.4746C40.6663 0.197266 41.6864 0.621571 42.535 1.47018C43.3836 2.31879 43.8079 3.33893 43.8079 4.5306V17.5306H4.80794V30.5306H13.6913V34.8639H4.80794C3.61628 34.8639 2.59614 34.4396 1.74753 33.591C0.898915 32.7424 0.474609 31.7223 0.474609 30.5306V4.5306ZM28.5329 39.1973L19.3246 29.9889L22.3579 26.9556L28.5329 33.0223L40.7746 20.7806L43.8079 23.9223L28.5329 39.1973ZM4.80794 4.5306V30.5306V20.7806V26.9014V4.5306Z" fill="#150EC5"/>
</svg>
