<svg width="41" height="41" viewBox="0 0 41 41" fill="none" xmlns="http://www.w3.org/2000/svg">
<circle cx="20.2227" cy="20.3906" r="20" fill="#33A484"/>
<path d="M9.77734 18.8906C8.94892 18.8906 8.27734 19.5622 8.27734 20.3906C8.27734 21.2191 8.94892 21.8906 9.77734 21.8906L9.77734 18.8906ZM31.7267 21.4513C32.3125 20.8655 32.3125 19.9158 31.7267 19.33L22.1807 9.78402C21.5949 9.19824 20.6452 9.19824 20.0594 9.78402C19.4736 10.3698 19.4736 11.3196 20.0594 11.9053L28.5447 20.3906L20.0594 28.8759C19.4736 29.4617 19.4736 30.4114 20.0594 30.9972C20.6452 31.583 21.5949 31.583 22.1807 30.9972L31.7267 21.4513ZM9.77734 21.8906L30.666 21.8906L30.666 18.8906L9.77734 18.8906L9.77734 21.8906Z" fill="white"/>
</svg>
