<svg width="19" height="30" viewBox="0 0 19 30" fill="none" xmlns="http://www.w3.org/2000/svg">
<path d="M11.4461 29.5L2.22109 18.8333C2.09609 18.6944 1.99609 18.5208 1.92109 18.3125C1.84609 18.1042 1.80859 17.8889 1.80859 17.6667V16.6667C1.80859 16.1944 1.95234 15.7986 2.23984 15.4792C2.52734 15.1597 2.88359 15 3.30859 15H7.05859C8.38359 15 9.52734 14.5208 10.4898 13.5625C11.4523 12.6042 12.0336 11.4167 12.2336 10H1.80859C1.38359 10 1.02734 9.84028 0.739844 9.52083C0.452344 9.20139 0.308594 8.80556 0.308594 8.33333C0.308594 7.86111 0.452344 7.46528 0.739844 7.14583C1.02734 6.82639 1.38359 6.66667 1.80859 6.66667H11.7836C11.3586 5.69444 10.7273 4.89583 9.88984 4.27083C9.05234 3.64583 8.10859 3.33333 7.05859 3.33333H1.80859C1.38359 3.33333 1.02734 3.17361 0.739844 2.85417C0.452344 2.53472 0.308594 2.13889 0.308594 1.66667C0.308594 1.19444 0.452344 0.798611 0.739844 0.479167C1.02734 0.159722 1.38359 0 1.80859 0H16.8086C17.2336 0 17.5898 0.159722 17.8773 0.479167C18.1648 0.798611 18.3086 1.19444 18.3086 1.66667C18.3086 2.13889 18.1648 2.53472 17.8773 2.85417C17.5898 3.17361 17.2336 3.33333 16.8086 3.33333H13.4336C13.7836 3.80556 14.0961 4.31944 14.3711 4.875C14.6461 5.43056 14.8586 6.02778 15.0086 6.66667H16.8086C17.2336 6.66667 17.5898 6.82639 17.8773 7.14583C18.1648 7.46528 18.3086 7.86111 18.3086 8.33333C18.3086 8.80556 18.1648 9.20139 17.8773 9.52083C17.5898 9.84028 17.2336 10 16.8086 10H15.2711C15.0711 12.3611 14.1961 14.3403 12.6461 15.9375C11.0961 17.5347 9.23359 18.3333 7.05859 18.3333H5.97109L13.6211 27.1667C14.0711 27.6944 14.1648 28.2986 13.9023 28.9792C13.6398 29.6597 13.1836 30 12.5336 30C12.3336 30 12.1398 29.9583 11.9523 29.875C11.7648 29.7917 11.5961 29.6667 11.4461 29.5Z" fill="black"/>
</svg>
