<svg width="46" height="47" viewBox="0 0 46 47" fill="none" xmlns="http://www.w3.org/2000/svg">
<path d="M22.5632 18.1966V11.6966H16.0632V7.36328H22.5632V0.863281H26.8965V7.36328H33.3965V11.6966H26.8965V18.1966H22.5632ZM13.8965 46.3633C12.7048 46.3633 11.6847 45.939 10.8361 45.0904C9.98746 44.2418 9.56315 43.2216 9.56315 42.0299C9.56315 40.8383 9.98746 39.8181 10.8361 38.9695C11.6847 38.1209 12.7048 37.6966 13.8965 37.6966C15.0882 37.6966 16.1083 38.1209 16.9569 38.9695C17.8055 39.8181 18.2298 40.8383 18.2298 42.0299C18.2298 43.2216 17.8055 44.2418 16.9569 45.0904C16.1083 45.939 15.0882 46.3633 13.8965 46.3633ZM35.5632 46.3633C34.3715 46.3633 33.3513 45.939 32.5027 45.0904C31.6541 44.2418 31.2298 43.2216 31.2298 42.0299C31.2298 40.8383 31.6541 39.8181 32.5027 38.9695C33.3513 38.1209 34.3715 37.6966 35.5632 37.6966C36.7548 37.6966 37.775 38.1209 38.6236 38.9695C39.4722 39.8181 39.8965 40.8383 39.8965 42.0299C39.8965 43.2216 39.4722 44.2418 38.6236 45.0904C37.775 45.939 36.7548 46.3633 35.5632 46.3633ZM0.896484 7.36328V3.02995H7.99232L17.2007 22.5299H32.3673L40.8173 7.36328H45.7465L36.2132 24.5883C35.8159 25.3105 35.2833 25.8702 34.6152 26.2674C33.9472 26.6647 33.2159 26.8633 32.4215 26.8633H16.2798L13.8965 31.1966H39.8965V35.5299H13.8965C12.2715 35.5299 11.0347 34.8258 10.1861 33.4174C9.33746 32.0091 9.31037 30.5827 10.1048 29.1383L13.0298 23.8299L5.22982 7.36328H0.896484Z" fill="#150EC5"/>
</svg>
