<svg width="41" height="38" viewBox="0 0 41 38" fill="none" xmlns="http://www.w3.org/2000/svg">
<path d="M20.0794 33.667C20.2016 33.667 20.3238 33.6364 20.446 33.5753C20.5683 33.5142 20.6599 33.4531 20.721 33.392L35.7544 18.3587C36.121 17.992 36.3884 17.5795 36.5565 17.1212C36.7245 16.6628 36.8085 16.2045 36.8085 15.7462C36.8085 15.2573 36.7245 14.7913 36.5565 14.3482C36.3884 13.9052 36.121 13.5156 35.7544 13.1795L27.9627 5.38783C27.6266 5.02116 27.237 4.7538 26.794 4.58574C26.3509 4.41769 25.8849 4.33366 25.396 4.33366C24.9377 4.33366 24.4794 4.41769 24.021 4.58574C23.5627 4.7538 23.1502 5.02116 22.7835 5.38783L22.2794 5.89199L25.671 9.32949C26.1294 9.75727 26.4655 10.2462 26.6794 10.7962C26.8933 11.3462 27.0002 11.9267 27.0002 12.5378C27.0002 13.8212 26.5648 14.8982 25.694 15.7691C24.8231 16.6399 23.746 17.0753 22.4627 17.0753C21.8516 17.0753 21.2634 16.9684 20.6981 16.7545C20.1328 16.5406 19.6363 16.2198 19.2085 15.792L15.771 12.4003L7.7502 20.4212C7.65854 20.5128 7.58979 20.6121 7.54395 20.7191C7.49812 20.826 7.4752 20.9406 7.4752 21.0628C7.4752 21.3073 7.56687 21.5288 7.7502 21.7274C7.93354 21.926 8.14742 22.0253 8.39187 22.0253C8.51409 22.0253 8.63631 21.9948 8.75854 21.9337C8.88076 21.8725 8.97242 21.8114 9.03354 21.7503L15.2669 15.517L17.8335 18.0837L11.646 24.317C11.5544 24.4087 11.4856 24.508 11.4398 24.6149C11.394 24.7219 11.371 24.8364 11.371 24.9587C11.371 25.2031 11.4627 25.417 11.646 25.6003C11.8294 25.7837 12.0433 25.8753 12.2877 25.8753C12.4099 25.8753 12.5321 25.8448 12.6544 25.7837C12.7766 25.7225 12.8683 25.6614 12.9294 25.6003L19.1627 19.4128L21.7294 21.9795L15.5419 28.2128C15.4502 28.2739 15.3815 28.3656 15.3356 28.4878C15.2898 28.61 15.2669 28.7323 15.2669 28.8545C15.2669 29.0989 15.3585 29.3128 15.5419 29.4962C15.7252 29.6795 15.9391 29.7712 16.1835 29.7712C16.3058 29.7712 16.4203 29.7482 16.5273 29.7024C16.6342 29.6566 16.7335 29.5878 16.8252 29.4962L23.0585 23.3087L25.6252 25.8753L19.3919 32.1087C19.3002 32.2003 19.2315 32.2996 19.1856 32.4066C19.1398 32.5135 19.1169 32.6281 19.1169 32.7503C19.1169 32.9948 19.2162 33.2087 19.4148 33.392C19.6134 33.5753 19.8349 33.667 20.0794 33.667ZM20.0335 37.3337C18.903 37.3337 17.9023 36.9594 17.0315 36.2107C16.1606 35.4621 15.6488 34.5225 15.496 33.392C14.4571 33.2392 13.5863 32.8114 12.8835 32.1087C12.1808 31.4059 11.753 30.535 11.6002 29.4962C10.5613 29.3434 9.69812 28.908 9.01062 28.1899C8.32312 27.4719 7.90298 26.6087 7.7502 25.6003C6.58909 25.4475 5.64187 24.9434 4.90854 24.0878C4.1752 23.2323 3.80854 22.2239 3.80854 21.0628C3.80854 20.4517 3.92312 19.8635 4.15229 19.2982C4.38145 18.733 4.70992 18.2364 5.1377 17.8087L15.771 7.22116L21.7752 13.2253C21.8363 13.317 21.928 13.3857 22.0502 13.4316C22.1724 13.4774 22.2946 13.5003 22.4169 13.5003C22.6919 13.5003 22.921 13.4163 23.1044 13.2482C23.2877 13.0802 23.3794 12.8587 23.3794 12.5837C23.3794 12.4614 23.3565 12.3392 23.3106 12.217C23.2648 12.0948 23.196 12.0031 23.1044 11.942L16.5502 5.38783C16.2141 5.02116 15.8245 4.7538 15.3815 4.58574C14.9384 4.41769 14.4724 4.33366 13.9835 4.33366C13.5252 4.33366 13.0669 4.41769 12.6085 4.58574C12.1502 4.7538 11.7377 5.02116 11.371 5.38783L4.90854 11.8962C4.63354 12.1712 4.40437 12.492 4.22104 12.8587C4.0377 13.2253 3.91548 13.592 3.85437 13.9587C3.79326 14.3253 3.79326 14.6996 3.85437 15.0816C3.91548 15.4635 4.0377 15.8225 4.22104 16.1587L1.5627 18.817C1.04326 18.1142 0.661313 17.3427 0.416869 16.5024C0.172424 15.6621 0.0807574 14.8142 0.141868 13.9587C0.20298 13.1031 0.416868 12.2705 0.783535 11.4607C1.1502 10.651 1.65437 9.92533 2.29604 9.28366L8.75854 2.82116C9.49187 2.11838 10.3092 1.58366 11.2106 1.21699C12.112 0.850326 13.0363 0.666992 13.9835 0.666992C14.9308 0.666992 15.8551 0.850326 16.7565 1.21699C17.6578 1.58366 18.4599 2.11838 19.1627 2.82116L19.6669 3.32533L20.171 2.82116C20.9044 2.11838 21.7217 1.58366 22.6231 1.21699C23.5245 0.850326 24.4488 0.666992 25.396 0.666992C26.3433 0.666992 27.2676 0.850326 28.169 1.21699C29.0703 1.58366 29.8724 2.11838 30.5752 2.82116L38.321 10.567C39.0238 11.2698 39.5585 12.0795 39.9252 12.9962C40.2919 13.9128 40.4752 14.8448 40.4752 15.792C40.4752 16.7392 40.2919 17.6635 39.9252 18.5649C39.5585 19.4663 39.0238 20.2684 38.321 20.9712L23.2877 35.9587C22.8599 36.3864 22.3634 36.7225 21.7981 36.967C21.2328 37.2114 20.6446 37.3337 20.0335 37.3337Z" fill="black"/>
</svg>
