<svg width="49" height="51" viewBox="0 0 49 51" fill="none" xmlns="http://www.w3.org/2000/svg">
<path d="M7.04102 35.5671V20.4004H11.3743V35.5671H7.04102ZM20.041 35.5671V20.4004H24.3743V35.5671H20.041ZM0.541016 16.0671V11.7337L22.2077 0.900391L43.8743 11.7337V16.0671H0.541016ZM10.2368 11.7337H34.1785L22.2077 5.77539L10.2368 11.7337ZM0.541016 44.2337V39.9004H26.6493C26.7216 40.6587 26.8118 41.39 26.9202 42.0941C27.0285 42.7983 27.191 43.5115 27.4077 44.2337H0.541016ZM33.041 27.4421V20.4004H37.3743V25.2754L33.041 27.4421ZM39.541 50.7337C37.0494 50.1198 34.982 48.6844 33.3389 46.4275C31.6959 44.1705 30.8743 41.6698 30.8743 38.9254V33.4004L39.541 29.0671L48.2077 33.4004V38.9254C48.2077 41.6698 47.3862 44.1705 45.7431 46.4275C44.1 48.6844 42.0327 50.1198 39.541 50.7337ZM37.9702 44.2337L45.4993 36.7587L43.2243 34.4837L37.9702 39.6296L35.8577 37.5171L33.5827 39.8462L37.9702 44.2337Z" fill="#22A183"/>
</svg>
