<svg width="19" height="19" viewBox="0 0 19 19" fill="none" xmlns="http://www.w3.org/2000/svg">
<path d="M17.6417 18.1809C15.5583 18.1809 13.5 17.7267 11.4667 16.8184C9.43332 15.9101 7.58332 14.6226 5.91665 12.9559C4.24998 11.2892 2.96248 9.43924 2.05415 7.40591C1.14582 5.37257 0.69165 3.31424 0.69165 1.23091C0.69165 0.930908 0.79165 0.680908 0.99165 0.480908C1.19165 0.280908 1.44165 0.180908 1.74165 0.180908H5.79165C6.02498 0.180908 6.23332 0.260075 6.41665 0.418408C6.59998 0.576742 6.70832 0.764242 6.74165 0.980908L7.39165 4.48091C7.42498 4.74758 7.41665 4.97257 7.36665 5.15591C7.31665 5.33924 7.22498 5.49758 7.09165 5.63091L4.66665 8.08091C4.99998 8.69757 5.39582 9.29341 5.85415 9.86841C6.31248 10.4434 6.81665 10.9976 7.36665 11.5309C7.88332 12.0476 8.42498 12.5267 8.99165 12.9684C9.55832 13.4101 10.1583 13.8142 10.7917 14.1809L13.1417 11.8309C13.2916 11.6809 13.4875 11.5684 13.7292 11.4934C13.9708 11.4184 14.2083 11.3976 14.4417 11.4309L17.8917 12.1309C18.125 12.1976 18.3167 12.3184 18.4667 12.4934C18.6166 12.6684 18.6917 12.8642 18.6917 13.0809V17.1309C18.6917 17.4309 18.5917 17.6809 18.3917 17.8809C18.1917 18.0809 17.9417 18.1809 17.6417 18.1809ZM3.71665 6.18091L5.36665 4.53091L4.94165 2.18091H2.71665C2.79998 2.86424 2.91665 3.53924 3.06665 4.20591C3.21665 4.87257 3.43332 5.53091 3.71665 6.18091ZM12.6667 15.1309C13.3167 15.4142 13.9792 15.6392 14.6542 15.8059C15.3292 15.9726 16.0083 16.0809 16.6917 16.1309V13.9309L14.3417 13.4559L12.6667 15.1309Z" fill="white"/>
</svg>
