<svg width="59" height="58" viewBox="0 0 59 58" fill="none" xmlns="http://www.w3.org/2000/svg">
<path d="M21.3297 16.9357L37.5379 34.2377L33.5605 38.2152L16.2419 22.0235L21.3297 16.9357ZM38.0517 44.0985C37.3446 43.3914 37.0021 42.5628 37.0242 41.6126C37.0463 40.6403 37.4606 39.7509 38.2672 38.9444C39.0847 38.1268 39.9742 37.7125 40.9354 37.7014C41.8856 37.6793 42.7142 38.0218 43.4213 38.7289C44.1063 39.4139 44.4433 40.237 44.4322 41.1983C44.4212 42.1595 44.0069 43.0489 43.1893 43.8665C42.3827 44.673 41.4933 45.0874 40.5211 45.1095C39.5598 45.1205 38.7367 44.7835 38.0517 44.0985Z" fill="#2E3191"/>
<path d="M45.1125 10.7734L44.3391 34.4688H38.7141L37.9172 10.7734H45.1125ZM37.7297 41.8047C37.7297 40.8047 38.0735 39.9766 38.761 39.3203C39.4641 38.6484 40.386 38.3125 41.5266 38.3125C42.6829 38.3125 43.6047 38.6484 44.2922 39.3203C44.9797 39.9766 45.3235 40.8047 45.3235 41.8047C45.3235 42.7734 44.9797 43.5938 44.2922 44.2656C43.6047 44.9375 42.6829 45.2734 41.5266 45.2734C40.386 45.2734 39.4641 44.9375 38.761 44.2656C38.0735 43.5938 37.7297 42.7734 37.7297 41.8047Z" fill="#2E3191"/>
<path d="M11.1127 44.8958L34.3814 40.3537L35.6386 45.8364L12.7208 51.9091L11.1127 44.8958ZM43.009 45.1563C42.0343 45.3798 41.1503 45.2298 40.357 44.7064C39.545 44.1712 39.0115 43.3478 38.7566 42.236C38.4981 41.109 38.6195 40.1353 39.1208 39.3151C39.6067 38.4983 40.3371 37.9782 41.3118 37.7546C42.256 37.5381 43.1324 37.6898 43.941 38.2098C44.7495 38.7297 45.283 39.5532 45.5414 40.6802C45.7963 41.792 45.6749 42.7656 45.1772 43.6011C44.676 44.4214 43.9533 44.9398 43.009 45.1563Z" fill="#2E3191"/>
</svg>
