<svg width="33" height="36" viewBox="0 0 33 36" fill="none" xmlns="http://www.w3.org/2000/svg">
<path d="M4.01367 35.9707C3.05117 35.9707 2.22721 35.628 1.5418 34.9426C0.85638 34.2572 0.513672 33.4332 0.513672 32.4707V7.9707C0.513672 7.0082 0.85638 6.18424 1.5418 5.49883C2.22721 4.81341 3.05117 4.4707 4.01367 4.4707H5.76367V0.970703H9.26367V4.4707H23.2637V0.970703H26.7637V4.4707H28.5137C29.4762 4.4707 30.3001 4.81341 30.9855 5.49883C31.671 6.18424 32.0137 7.0082 32.0137 7.9707V32.4707C32.0137 33.4332 31.671 34.2572 30.9855 34.9426C30.3001 35.628 29.4762 35.9707 28.5137 35.9707H4.01367ZM4.01367 32.4707H28.5137V14.9707H4.01367V32.4707ZM4.01367 11.4707H28.5137V7.9707H4.01367V11.4707ZM16.2637 21.9707C15.7678 21.9707 15.3522 21.803 15.0168 21.4676C14.6814 21.1322 14.5137 20.7165 14.5137 20.2207C14.5137 19.7249 14.6814 19.3092 15.0168 18.9738C15.3522 18.6384 15.7678 18.4707 16.2637 18.4707C16.7595 18.4707 17.1751 18.6384 17.5105 18.9738C17.846 19.3092 18.0137 19.7249 18.0137 20.2207C18.0137 20.7165 17.846 21.1322 17.5105 21.4676C17.1751 21.803 16.7595 21.9707 16.2637 21.9707ZM9.26367 21.9707C8.76784 21.9707 8.35221 21.803 8.0168 21.4676C7.68138 21.1322 7.51367 20.7165 7.51367 20.2207C7.51367 19.7249 7.68138 19.3092 8.0168 18.9738C8.35221 18.6384 8.76784 18.4707 9.26367 18.4707C9.75951 18.4707 10.1751 18.6384 10.5105 18.9738C10.846 19.3092 11.0137 19.7249 11.0137 20.2207C11.0137 20.7165 10.846 21.1322 10.5105 21.4676C10.1751 21.803 9.75951 21.9707 9.26367 21.9707ZM23.2637 21.9707C22.7678 21.9707 22.3522 21.803 22.0168 21.4676C21.6814 21.1322 21.5137 20.7165 21.5137 20.2207C21.5137 19.7249 21.6814 19.3092 22.0168 18.9738C22.3522 18.6384 22.7678 18.4707 23.2637 18.4707C23.7595 18.4707 24.1751 18.6384 24.5105 18.9738C24.846 19.3092 25.0137 19.7249 25.0137 20.2207C25.0137 20.7165 24.846 21.1322 24.5105 21.4676C24.1751 21.803 23.7595 21.9707 23.2637 21.9707ZM16.2637 28.9707C15.7678 28.9707 15.3522 28.803 15.0168 28.4676C14.6814 28.1322 14.5137 27.7165 14.5137 27.2207C14.5137 26.7249 14.6814 26.3092 15.0168 25.9738C15.3522 25.6384 15.7678 25.4707 16.2637 25.4707C16.7595 25.4707 17.1751 25.6384 17.5105 25.9738C17.846 26.3092 18.0137 26.7249 18.0137 27.2207C18.0137 27.7165 17.846 28.1322 17.5105 28.4676C17.1751 28.803 16.7595 28.9707 16.2637 28.9707ZM9.26367 28.9707C8.76784 28.9707 8.35221 28.803 8.0168 28.4676C7.68138 28.1322 7.51367 27.7165 7.51367 27.2207C7.51367 26.7249 7.68138 26.3092 8.0168 25.9738C8.35221 25.6384 8.76784 25.4707 9.26367 25.4707C9.75951 25.4707 10.1751 25.6384 10.5105 25.9738C10.846 26.3092 11.0137 26.7249 11.0137 27.2207C11.0137 27.7165 10.846 28.1322 10.5105 28.4676C10.1751 28.803 9.75951 28.9707 9.26367 28.9707ZM23.2637 28.9707C22.7678 28.9707 22.3522 28.803 22.0168 28.4676C21.6814 28.1322 21.5137 27.7165 21.5137 27.2207C21.5137 26.7249 21.6814 26.3092 22.0168 25.9738C22.3522 25.6384 22.7678 25.4707 23.2637 25.4707C23.7595 25.4707 24.1751 25.6384 24.5105 25.9738C24.846 26.3092 25.0137 26.7249 25.0137 27.2207C25.0137 27.7165 24.846 28.1322 24.5105 28.4676C24.1751 28.803 23.7595 28.9707 23.2637 28.9707Z" fill="#22A183"/>
</svg>
