<svg width="32" height="36" viewBox="0 0 32 36" fill="none" xmlns="http://www.w3.org/2000/svg">
<path d="M20.4258 28.0469C19.2008 28.0469 18.1654 27.624 17.3195 26.7781C16.4737 25.9323 16.0508 24.8969 16.0508 23.6719C16.0508 22.4469 16.4737 21.4115 17.3195 20.5656C18.1654 19.7198 19.2008 19.2969 20.4258 19.2969C21.6508 19.2969 22.6862 19.7198 23.532 20.5656C24.3779 21.4115 24.8008 22.4469 24.8008 23.6719C24.8008 24.8969 24.3779 25.9323 23.532 26.7781C22.6862 27.624 21.6508 28.0469 20.4258 28.0469ZM3.80078 35.0469C2.83828 35.0469 2.01432 34.7042 1.32891 34.0187C0.64349 33.3333 0.300781 32.5094 0.300781 31.5469V7.04688C0.300781 6.08437 0.64349 5.26042 1.32891 4.575C2.01432 3.88958 2.83828 3.54688 3.80078 3.54688H5.55078V0.046875H9.05078V3.54688H23.0508V0.046875H26.5508V3.54688H28.3008C29.2633 3.54688 30.0872 3.88958 30.7727 4.575C31.4581 5.26042 31.8008 6.08437 31.8008 7.04688V31.5469C31.8008 32.5094 31.4581 33.3333 30.7727 34.0187C30.0872 34.7042 29.2633 35.0469 28.3008 35.0469H3.80078ZM3.80078 31.5469H28.3008V14.0469H3.80078V31.5469ZM3.80078 10.5469H28.3008V7.04688H3.80078V10.5469Z" fill="#150EC5"/>
</svg>
