<svg width="36" height="36" viewBox="0 0 36 36" fill="none" xmlns="http://www.w3.org/2000/svg">
<path d="M6.46016 14.0137L9.87266 15.4575C10.281 14.6408 10.7039 13.8533 11.1414 13.095C11.5789 12.3366 12.0602 11.5783 12.5852 10.82L10.1352 10.3387L6.46016 14.0137ZM12.6727 17.645L17.6602 22.5887C18.8852 22.1221 20.1977 21.4075 21.5977 20.445C22.9977 19.4825 24.3102 18.3887 25.5352 17.1637C27.5768 15.1221 29.1737 12.8543 30.3258 10.3606C31.4779 7.86685 31.981 5.56997 31.8352 3.46997C29.7352 3.32414 27.431 3.82726 24.9227 4.97935C22.4143 6.13143 20.1393 7.72831 18.0977 9.76997C16.8727 10.995 15.7789 12.3075 14.8164 13.7075C13.8539 15.1075 13.1393 16.42 12.6727 17.645ZM20.4602 14.8012C19.7893 14.1304 19.4539 13.3064 19.4539 12.3293C19.4539 11.3523 19.7893 10.5283 20.4602 9.85747C21.131 9.18664 21.9622 8.85122 22.9539 8.85122C23.9456 8.85122 24.7768 9.18664 25.4477 9.85747C26.1185 10.5283 26.4539 11.3523 26.4539 12.3293C26.4539 13.3064 26.1185 14.1304 25.4477 14.8012C24.7768 15.4721 23.9456 15.8075 22.9539 15.8075C21.9622 15.8075 21.131 15.4721 20.4602 14.8012ZM21.2914 28.845L24.9664 25.17L24.4852 22.72C23.7268 23.245 22.9685 23.7189 22.2102 24.1418C21.4518 24.5648 20.6643 24.9804 19.8477 25.3887L21.2914 28.845ZM34.9852 0.276222C35.5393 3.80539 35.1966 7.23976 33.957 10.5793C32.7175 13.9189 30.581 17.1054 27.5477 20.1387L28.4227 24.47C28.5393 25.0533 28.5102 25.6221 28.3352 26.1762C28.1602 26.7304 27.8685 27.2116 27.4602 27.62L20.1102 34.97L16.4352 26.3512L8.95391 18.87L0.335156 15.195L7.64141 7.84497C8.04974 7.43664 8.53828 7.14497 9.10703 6.96997C9.67578 6.79497 10.2518 6.76581 10.8352 6.88247L15.1664 7.75747C18.1997 4.72414 21.3789 2.58039 24.7039 1.32622C28.0289 0.0720556 31.456 -0.277944 34.9852 0.276222ZM3.44141 24.4262C4.46224 23.4054 5.70912 22.8877 7.18203 22.8731C8.65495 22.8585 9.90182 23.3616 10.9227 24.3825C11.9435 25.4033 12.4466 26.6502 12.432 28.1231C12.4174 29.596 11.8997 30.8429 10.8789 31.8637C10.1497 32.5929 8.93203 33.22 7.22578 33.745C5.51953 34.27 3.16432 34.7366 0.160156 35.145C0.56849 32.1408 1.03516 29.7856 1.56016 28.0793C2.08516 26.3731 2.71224 25.1554 3.44141 24.4262ZM5.93516 26.8762C5.64349 27.1679 5.35182 27.7002 5.06016 28.4731C4.76849 29.246 4.56432 30.0262 4.44766 30.8137C5.23516 30.6971 6.01537 30.5002 6.78828 30.2231C7.5612 29.946 8.09349 29.6616 8.38516 29.37C8.73516 29.02 8.92474 28.5971 8.95391 28.1012C8.98307 27.6054 8.82266 27.1825 8.47266 26.8325C8.12266 26.4825 7.69974 26.3148 7.20391 26.3293C6.70807 26.3439 6.28516 26.5262 5.93516 26.8762Z" fill="#22A183"/>
</svg>
