<svg width="40" height="36" viewBox="0 0 40 36" fill="none" xmlns="http://www.w3.org/2000/svg">
<path d="M19.5487 32.4707C19.6654 32.4707 19.7821 32.4415 19.8988 32.3832C20.0154 32.3249 20.1029 32.2665 20.1612 32.2082L34.5112 17.8582C34.8613 17.5082 35.1165 17.1145 35.2769 16.677C35.4373 16.2395 35.5175 15.802 35.5175 15.3645C35.5175 14.8978 35.4373 14.453 35.2769 14.0301C35.1165 13.6072 34.8613 13.2353 34.5112 12.9145L27.0738 5.47695C26.7529 5.12695 26.381 4.87174 25.9581 4.71133C25.5352 4.55091 25.0904 4.4707 24.6238 4.4707C24.1863 4.4707 23.7488 4.55091 23.3113 4.71133C22.8738 4.87174 22.48 5.12695 22.13 5.47695L21.6488 5.9582L24.8863 9.23945C25.3238 9.64779 25.6446 10.1145 25.8488 10.6395C26.0529 11.1645 26.155 11.7186 26.155 12.302C26.155 13.527 25.7394 14.5551 24.9081 15.3863C24.0769 16.2176 23.0487 16.6332 21.8237 16.6332C21.2404 16.6332 20.679 16.5311 20.1394 16.327C19.5998 16.1228 19.1258 15.8165 18.7175 15.4082L15.4362 12.1707L7.78 19.827C7.6925 19.9145 7.62687 20.0092 7.58312 20.1113C7.53937 20.2134 7.5175 20.3228 7.5175 20.4395C7.5175 20.6728 7.605 20.8842 7.78 21.0738C7.955 21.2634 8.15917 21.3582 8.3925 21.3582C8.50917 21.3582 8.62583 21.329 8.7425 21.2707C8.85917 21.2124 8.94667 21.154 9.005 21.0957L14.955 15.1457L17.405 17.5957L11.4987 23.5457C11.4112 23.6332 11.3456 23.728 11.3019 23.8301C11.2581 23.9322 11.2362 24.0415 11.2362 24.1582C11.2362 24.3915 11.3237 24.5957 11.4987 24.7707C11.6737 24.9457 11.8779 25.0332 12.1112 25.0332C12.2279 25.0332 12.3446 25.004 12.4612 24.9457C12.5779 24.8874 12.6654 24.829 12.7237 24.7707L18.6737 18.8645L21.1237 21.3145L15.2175 27.2645C15.13 27.3228 15.0644 27.4103 15.0206 27.527C14.9769 27.6436 14.955 27.7603 14.955 27.877C14.955 28.1103 15.0425 28.3145 15.2175 28.4895C15.3925 28.6645 15.5967 28.752 15.83 28.752C15.9467 28.752 16.056 28.7301 16.1581 28.6863C16.2602 28.6426 16.355 28.577 16.4425 28.4895L22.3925 22.5832L24.8425 25.0332L18.8925 30.9832C18.805 31.0707 18.7394 31.1655 18.6956 31.2676C18.6519 31.3697 18.63 31.479 18.63 31.5957C18.63 31.829 18.7248 32.0332 18.9144 32.2082C19.104 32.3832 19.3154 32.4707 19.5487 32.4707ZM19.505 35.9707C18.4258 35.9707 17.4706 35.6134 16.6394 34.8988C15.8081 34.1842 15.3196 33.2874 15.1737 32.2082C14.1821 32.0624 13.3508 31.654 12.68 30.9832C12.0092 30.3124 11.6008 29.4811 11.455 28.4895C10.4633 28.3436 9.63937 27.928 8.98312 27.2426C8.32687 26.5572 7.92583 25.7332 7.78 24.7707C6.67167 24.6249 5.7675 24.1436 5.0675 23.327C4.3675 22.5103 4.0175 21.5478 4.0175 20.4395C4.0175 19.8561 4.12687 19.2947 4.34562 18.7551C4.56437 18.2155 4.87792 17.7415 5.28625 17.3332L15.4362 7.22695L21.1675 12.9582C21.2258 13.0457 21.3133 13.1113 21.43 13.1551C21.5467 13.1988 21.6633 13.2207 21.78 13.2207C22.0425 13.2207 22.2612 13.1405 22.4362 12.9801C22.6112 12.8197 22.6987 12.6082 22.6987 12.3457C22.6987 12.229 22.6769 12.1124 22.6331 11.9957C22.5894 11.879 22.5238 11.7915 22.4362 11.7332L16.18 5.47695C15.8592 5.12695 15.4873 4.87174 15.0644 4.71133C14.6415 4.55091 14.1967 4.4707 13.73 4.4707C13.2925 4.4707 12.855 4.55091 12.4175 4.71133C11.98 4.87174 11.5862 5.12695 11.2362 5.47695L5.0675 11.6895C4.805 11.952 4.58625 12.2582 4.41125 12.6082C4.23625 12.9582 4.11958 13.3082 4.06125 13.6582C4.00292 14.0082 4.00292 14.3655 4.06125 14.7301C4.11958 15.0947 4.23625 15.4374 4.41125 15.7582L1.87375 18.2957C1.37792 17.6249 1.01333 16.8884 0.78 16.0863C0.546667 15.2842 0.459167 14.4749 0.5175 13.6582C0.575833 12.8415 0.78 12.0467 1.13 11.2738C1.48 10.5009 1.96125 9.8082 2.57375 9.1957L8.7425 3.02695C9.4425 2.35612 10.2227 1.8457 11.0831 1.4957C11.9435 1.1457 12.8258 0.970703 13.73 0.970703C14.6342 0.970703 15.5165 1.1457 16.3769 1.4957C17.2373 1.8457 18.0029 2.35612 18.6737 3.02695L19.155 3.5082L19.6362 3.02695C20.3363 2.35612 21.1165 1.8457 21.9769 1.4957C22.8373 1.1457 23.7196 0.970703 24.6238 0.970703C25.5279 0.970703 26.4102 1.1457 27.2706 1.4957C28.131 1.8457 28.8967 2.35612 29.5675 3.02695L36.9613 10.4207C37.6321 11.0915 38.1425 11.8645 38.4925 12.7395C38.8425 13.6145 39.0175 14.504 39.0175 15.4082C39.0175 16.3124 38.8425 17.1947 38.4925 18.0551C38.1425 18.9155 37.6321 19.6811 36.9613 20.352L22.6112 34.6582C22.2029 35.0665 21.729 35.3874 21.1894 35.6207C20.6498 35.854 20.0883 35.9707 19.505 35.9707Z" fill="#22A183"/>
</svg>
